{"asset":{"version":"2.0","generator":"babylon.js glTF exporter for Maya 2018 v20190916.7"},"scene":0,"scenes":[{"nodes":[0,1,2,3],"extensions":{}}],"nodes":[{"mesh":0,"translation":[0.506269,0.0,-0.00519632827],"rotation":[0.0,0.0,0.0,1.0],"scale":[1.0,1.0,1.0],"name":"typeMesh19"},{"mesh":1,"translation":[3.24705553,0.0,0.0],"rotation":[0.0,0.0,0.0,1.0],"scale":[1.0,1.0,1.0],"name":"polySurface4273"},{"mesh":2,"translation":[3.21349478,0.0,0.0],"rotation":[0.0,0.0,0.0,1.0],"scale":[1.0,1.0,1.0],"name":"_collider20"},{"translation":[0.0,0.0,0.0],"rotation":[0.0,0.0,0.0,1.0],"scale":[1.0,1.0,1.0],"name":"Default light"}],"meshes":[{"primitives":[{"attributes":{"POSITION":1,"TANGENT":2,"NORMAL":3,"TEXCOORD_0":4},"indices":0,"mode":4,"material":0},{"attributes":{"POSITION":6,"TANGENT":7,"NORMAL":8,"TEXCOORD_0":9},"indices":5,"mode":4,"material":1},{"attributes":{"POSITION":11,"TANGENT":12,"NORMAL":13,"TEXCOORD_0":14},"indices":10,"mode":4,"material":2}],"name":"typeMesh19"},{"primitives":[{"attributes":{"POSITION":16,"TANGENT":17,"NORMAL":18,"TEXCOORD_0":19},"indices":15,"mode":4,"material":3},{"attributes":{"POSITION":21,"TANGENT":22,"NORMAL":23,"TEXCOORD_0":24},"indices":20,"mode":4,"material":0}],"name":"polySurface4273"},{"primitives":[{"attributes":{"POSITION":26,"TANGENT":27,"NORMAL":28,"TEXCOORD_0":29},"indices":25,"mode":4,"material":3},{"attributes":{"POSITION":31,"TANGENT":32,"NORMAL":33,"TEXCOORD_0":34},"indices":30,"mode":4,"material":0}],"name":"_collider20"}],"accessors":[{"bufferView":0,"componentType":5123,"count":7104,"type":"SCALAR","name":"accessorIndices"},{"bufferView":1,"componentType":5126,"count":2468,"max":[7.22066,4.18257236,-3.415069],"min":[2.36624527,2.72915888,-3.415069],"type":"VEC3","name":"accessorPositions"},{"bufferView":2,"componentType":5126,"count":2468,"type":"VEC4","name":"accessorTangents"},{"bufferView":1,"byteOffset":29616,"componentType":5126,"count":2468,"type":"VEC3","name":"accessorNormals"},{"bufferView":3,"componentType":5126,"count":2468,"type":"VEC2","name":"accessorUVs"},{"bufferView":0,"byteOffset":14208,"componentType":5123,"count":78,"type":"SCALAR","name":"accessorIndices"},{"bufferView":1,"byteOffset":59232,"componentType":5126,"count":44,"max":[7.270559,3.83475757,-3.31325531],"min":[5.69541,1.74506426,-3.55971622],"type":"VEC3","name":"accessorPositions"},{"bufferView":2,"byteOffset":39488,"componentType":5126,"count":44,"type":"VEC4","name":"accessorTangents"},{"bufferView":1,"byteOffset":59760,"componentType":5126,"count":44,"type":"VEC3","name":"accessorNormals"},{"bufferView":3,"byteOffset":19744,"componentType":5126,"count":44,"type":"VEC2","name":"accessorUVs"},{"bufferView":0,"byteOffset":14364,"componentType":5123,"count":6,"type":"SCALAR","name":"accessorIndices"},{"bufferView":1,"byteOffset":60288,"componentType":5126,"count":4,"max":[7.118805,3.60072541,-3.45731544],"min":[5.847163,1.97909641,-3.45731544],"type":"VEC3","name":"accessorPositions"},{"bufferView":2,"byteOffset":40192,"componentType":5126,"count":4,"type":"VEC4","name":"accessorTangents"},{"bufferView":1,"byteOffset":60336,"componentType":5126,"count":4,"type":"VEC3","name":"accessorNormals"},{"bufferView":3,"byteOffset":20096,"componentType":5126,"count":4,"type":"VEC2","name":"accessorUVs"},{"bufferView":0,"byteOffset":14376,"componentType":5123,"count":78,"type":"SCALAR","name":"accessorIndices"},{"bufferView":1,"byteOffset":60384,"componentType":5126,"count":36,"max":[2.64080524,2.17323279,-3.60888577],"min":[2.319693,1.9616158,-3.88951159],"type":"VEC3","name":"accessorPositions"},{"bufferView":2,"byteOffset":40256,"componentType":5126,"count":36,"type":"VEC4","name":"accessorTangents"},{"bufferView":1,"byteOffset":60816,"componentType":5126,"count":36,"type":"VEC3","name":"accessorNormals"},{"bufferView":3,"byteOffset":20128,"componentType":5126,"count":36,"type":"VEC2","name":"accessorUVs"},{"bufferView":0,"byteOffset":14532,"componentType":5123,"count":36,"type":"SCALAR","name":"accessorIndices"},{"bufferView":1,"byteOffset":61248,"componentType":5126,"count":24,"max":[2.686428,1.97555637,-3.56901455],"min":[2.27406979,0.242704213,-3.92938232],"type":"VEC3","name":"accessorPositions"},{"bufferView":2,"byteOffset":40832,"componentType":5126,"count":24,"type":"VEC4","name":"accessorTangents"},{"bufferView":1,"byteOffset":61536,"componentType":5126,"count":24,"type":"VEC3","name":"accessorNormals"},{"bufferView":3,"byteOffset":20416,"componentType":5126,"count":24,"type":"VEC2","name":"accessorUVs"},{"bufferView":0,"byteOffset":14604,"componentType":5123,"count":78,"type":"SCALAR","name":"accessorIndices"},{"bufferView":1,"byteOffset":61824,"componentType":5126,"count":36,"max":[2.64080524,2.17323279,-3.60888577],"min":[2.319693,1.9616158,-3.88951159],"type":"VEC3","name":"accessorPositions"},{"bufferView":2,"byteOffset":41216,"componentType":5126,"count":36,"type":"VEC4","name":"accessorTangents"},{"bufferView":1,"byteOffset":62256,"componentType":5126,"count":36,"type":"VEC3","name":"accessorNormals"},{"bufferView":3,"byteOffset":20608,"componentType":5126,"count":36,"type":"VEC2","name":"accessorUVs"},{"bufferView":0,"byteOffset":14760,"componentType":5123,"count":36,"type":"SCALAR","name":"accessorIndices"},{"bufferView":1,"byteOffset":62688,"componentType":5126,"count":24,"max":[2.686428,1.97555637,-3.56901455],"min":[2.27406979,0.242704213,-3.92938232],"type":"VEC3","name":"accessorPositions"},{"bufferView":2,"byteOffset":41792,"componentType":5126,"count":24,"type":"VEC4","name":"accessorTangents"},{"bufferView":1,"byteOffset":62976,"componentType":5126,"count":24,"type":"VEC3","name":"accessorNormals"},{"bufferView":3,"byteOffset":20896,"componentType":5126,"count":24,"type":"VEC2","name":"accessorUVs"},{"bufferView":4,"componentType":5126,"count":2,"max":[0.0333333351],"min":[0.0],"type":"SCALAR","name":"accessorAnimationInput"},{"bufferView":5,"componentType":5126,"count":2,"type":"VEC3","name":"accessorAnimationPositions"},{"bufferView":4,"byteOffset":8,"componentType":5126,"count":2,"max":[0.06666667],"min":[0.0],"type":"SCALAR","name":"accessorAnimationInput"},{"bufferView":5,"byteOffset":24,"componentType":5126,"count":2,"type":"VEC3","name":"accessorAnimationPositions"}],"bufferViews":[{"buffer":0,"byteLength":14832,"name":"bufferViewScalar"},{"buffer":0,"byteOffset":14832,"byteLength":63264,"byteStride":12,"name":"bufferViewFloatVec3"},{"buffer":0,"byteOffset":78096,"byteLength":42176,"byteStride":16,"name":"bufferViewFloatVec4"},{"buffer":0,"byteOffset":120272,"byteLength":21088,"byteStride":8,"name":"bufferViewFloatVec2"},{"buffer":0,"byteOffset":141360,"byteLength":16,"name":"bufferViewAnimationFloatScalar"},{"buffer":0,"byteOffset":141376,"byteLength":48,"name":"bufferViewAnimationFloatVec3"}],"buffers":[{"uri":"1_1941_2.bin","byteLength":141424}],"materials":[{"pbrMetallicRoughness":{"baseColorFactor":[0.0,0.0,0.0,1.0],"metallicFactor":0.0,"roughnessFactor":0.450053632},"emissiveFactor":[0.0,0.0,0.0],"alphaMode":"OPAQUE","name":"black_lambert"},{"pbrMetallicRoughness":{"baseColorFactor":[0.0,0.0,0.0,1.0],"metallicFactor":0.0,"roughnessFactor":0.450053632},"emissiveFactor":[0.0,0.0,0.0],"alphaMode":"OPAQUE","name":"lambert91"},{"pbrMetallicRoughness":{"baseColorFactor":[1.0,1.0,1.0,1.0],"baseColorTexture":{"index":0,"texCoord":0},"metallicFactor":0.0,"roughnessFactor":0.450053632},"emissiveFactor":[0.0,0.0,0.0],"alphaMode":"OPAQUE","name":"Konrad_Zuse"},{"pbrMetallicRoughness":{"baseColorFactor":[0.5,0.0,0.0,1.0],"metallicFactor":0.0,"roughnessFactor":0.2581639},"emissiveFactor":[0.0,0.0,0.0],"alphaMode":"OPAQUE","name":"red_pong"}],"textures":[{"sampler":0,"source":0,"name":"Konrad_Zuse.jpg"}],"images":[{"uri":"Konrad_Zuse.jpg"}],"samplers":[{"magFilter":9729,"minFilter":9987,"wrapS":10497,"wrapT":10497}],"animations":[{"channels":[{"sampler":0,"target":{"node":0,"path":"translation"}}],"samplers":[{"input":35,"interpolation":"LINEAR","output":36}],"name":"back"},{"channels":[{"sampler":0,"target":{"node":0,"path":"translation"}}],"samplers":[{"input":37,"interpolation":"LINEAR","output":38}],"name":"out"}]}