{"asset":{"version":"2.0","generator":"babylon.js glTF exporter for Maya 2018 v20190916.7"},"scene":0,"scenes":[{"nodes":[0,1,2,3],"extensions":{}}],"nodes":[{"mesh":0,"translation":[0.170987457,0.0,0.218145847],"rotation":[0.0,0.0,0.0,1.0],"scale":[1.0,1.0,1.0],"name":"polySurface4278"},{"mesh":1,"translation":[0.170987457,0.0,0.218145847],"rotation":[0.0,0.0,0.0,1.0],"scale":[1.0,1.0,1.0],"name":"_collider22"},{"mesh":2,"translation":[0.0,0.0,-0.0274484251],"rotation":[0.0,0.0,0.0,1.0],"scale":[1.0,1.0,1.0],"name":"typeMesh53"},{"translation":[0.0,0.0,0.0],"rotation":[0.0,0.0,0.0,1.0],"scale":[1.0,1.0,1.0],"name":"Default light"}],"meshes":[{"primitives":[{"attributes":{"POSITION":1,"TANGENT":2,"NORMAL":3,"TEXCOORD_0":4},"indices":0,"mode":4,"material":0},{"attributes":{"POSITION":6,"TANGENT":7,"NORMAL":8,"TEXCOORD_0":9},"indices":5,"mode":4,"material":1}],"name":"polySurface4278"},{"primitives":[{"attributes":{"POSITION":11,"TANGENT":12,"NORMAL":13,"TEXCOORD_0":14},"indices":10,"mode":4,"material":0},{"attributes":{"POSITION":16,"TANGENT":17,"NORMAL":18,"TEXCOORD_0":19},"indices":15,"mode":4,"material":1}],"name":"_collider22"},{"primitives":[{"attributes":{"POSITION":21,"TANGENT":22,"NORMAL":23,"TEXCOORD_0":24},"indices":20,"mode":4,"material":1},{"attributes":{"POSITION":26,"TANGENT":27,"NORMAL":28,"TEXCOORD_0":29},"indices":25,"mode":4,"material":2},{"attributes":{"POSITION":31,"TANGENT":32,"NORMAL":33,"TEXCOORD_0":34},"indices":30,"mode":4,"material":3}],"name":"typeMesh53"}],"accessors":[{"bufferView":0,"componentType":5123,"count":78,"type":"SCALAR","name":"accessorIndices"},{"bufferView":1,"componentType":5126,"count":36,"max":[3.87351775,2.17323279,17.9082146],"min":[3.5524056,1.9616158,17.6275883],"type":"VEC3","name":"accessorPositions"},{"bufferView":2,"componentType":5126,"count":36,"type":"VEC4","name":"accessorTangents"},{"bufferView":1,"byteOffset":432,"componentType":5126,"count":36,"type":"VEC3","name":"accessorNormals"},{"bufferView":3,"componentType":5126,"count":36,"type":"VEC2","name":"accessorUVs"},{"bufferView":0,"byteOffset":156,"componentType":5123,"count":36,"type":"SCALAR","name":"accessorIndices"},{"bufferView":1,"byteOffset":864,"componentType":5126,"count":24,"max":[3.91914058,1.97555637,17.9480858],"min":[3.50678229,0.242704213,17.5877171],"type":"VEC3","name":"accessorPositions"},{"bufferView":2,"byteOffset":576,"componentType":5126,"count":24,"type":"VEC4","name":"accessorTangents"},{"bufferView":1,"byteOffset":1152,"componentType":5126,"count":24,"type":"VEC3","name":"accessorNormals"},{"bufferView":3,"byteOffset":288,"componentType":5126,"count":24,"type":"VEC2","name":"accessorUVs"},{"bufferView":0,"byteOffset":228,"componentType":5123,"count":78,"type":"SCALAR","name":"accessorIndices"},{"bufferView":1,"byteOffset":1440,"componentType":5126,"count":36,"max":[3.87351775,2.17323279,17.9082146],"min":[3.5524056,1.9616158,17.6275883],"type":"VEC3","name":"accessorPositions"},{"bufferView":2,"byteOffset":960,"componentType":5126,"count":36,"type":"VEC4","name":"accessorTangents"},{"bufferView":1,"byteOffset":1872,"componentType":5126,"count":36,"type":"VEC3","name":"accessorNormals"},{"bufferView":3,"byteOffset":480,"componentType":5126,"count":36,"type":"VEC2","name":"accessorUVs"},{"bufferView":0,"byteOffset":384,"componentType":5123,"count":36,"type":"SCALAR","name":"accessorIndices"},{"bufferView":1,"byteOffset":2304,"componentType":5126,"count":24,"max":[3.91914058,1.97555637,17.9480858],"min":[3.50678229,0.242704213,17.5877171],"type":"VEC3","name":"accessorPositions"},{"bufferView":2,"byteOffset":1536,"componentType":5126,"count":24,"type":"VEC4","name":"accessorTangents"},{"bufferView":1,"byteOffset":2592,"componentType":5126,"count":24,"type":"VEC3","name":"accessorNormals"},{"bufferView":3,"byteOffset":768,"componentType":5126,"count":24,"type":"VEC2","name":"accessorUVs"},{"bufferView":0,"byteOffset":456,"componentType":5123,"count":110721,"type":"SCALAR","name":"accessorIndices"},{"bufferView":1,"byteOffset":2880,"componentType":5126,"count":30935,"max":[5.766532,4.12656164,18.1602478],"min":[1.401813,2.837132,18.130825],"type":"VEC3","name":"accessorPositions"},{"bufferView":2,"byteOffset":1920,"componentType":5126,"count":30935,"type":"VEC4","name":"accessorTangents"},{"bufferView":1,"byteOffset":374100,"componentType":5126,"count":30935,"type":"VEC3","name":"accessorNormals"},{"bufferView":3,"byteOffset":960,"componentType":5126,"count":30935,"type":"VEC2","name":"accessorUVs"},{"bufferView":0,"byteOffset":221900,"componentType":5123,"count":78,"type":"SCALAR","name":"accessorIndices"},{"bufferView":1,"byteOffset":745320,"componentType":5126,"count":44,"max":[5.878956,3.83475757,18.2360477],"min":[4.30380726,1.74506426,17.9895878],"type":"VEC3","name":"accessorPositions"},{"bufferView":2,"byteOffset":496880,"componentType":5126,"count":44,"type":"VEC4","name":"accessorTangents"},{"bufferView":1,"byteOffset":745848,"componentType":5126,"count":44,"type":"VEC3","name":"accessorNormals"},{"bufferView":3,"byteOffset":248440,"componentType":5126,"count":44,"type":"VEC2","name":"accessorUVs"},{"bufferView":0,"byteOffset":222056,"componentType":5123,"count":6,"type":"SCALAR","name":"accessorIndices"},{"bufferView":1,"byteOffset":746376,"componentType":5126,"count":4,"max":[5.72720242,3.60072541,18.0919876],"min":[4.45556068,1.97909641,18.0919876],"type":"VEC3","name":"accessorPositions"},{"bufferView":2,"byteOffset":497584,"componentType":5126,"count":4,"type":"VEC4","name":"accessorTangents"},{"bufferView":1,"byteOffset":746424,"componentType":5126,"count":4,"type":"VEC3","name":"accessorNormals"},{"bufferView":3,"byteOffset":248792,"componentType":5126,"count":4,"type":"VEC2","name":"accessorUVs"},{"bufferView":4,"componentType":5126,"count":2,"max":[0.0333333351],"min":[0.0],"type":"SCALAR","name":"accessorAnimationInput"},{"bufferView":5,"componentType":5126,"count":2,"type":"VEC3","name":"accessorAnimationPositions"},{"bufferView":4,"byteOffset":8,"componentType":5126,"count":2,"max":[0.06666667],"min":[0.0],"type":"SCALAR","name":"accessorAnimationInput"},{"bufferView":5,"byteOffset":24,"componentType":5126,"count":2,"type":"VEC3","name":"accessorAnimationPositions"}],"bufferViews":[{"buffer":0,"byteLength":222068,"name":"bufferViewScalar"},{"buffer":0,"byteOffset":222068,"byteLength":746472,"byteStride":12,"name":"bufferViewFloatVec3"},{"buffer":0,"byteOffset":968540,"byteLength":497648,"byteStride":16,"name":"bufferViewFloatVec4"},{"buffer":0,"byteOffset":1466188,"byteLength":248824,"byteStride":8,"name":"bufferViewFloatVec2"},{"buffer":0,"byteOffset":1715012,"byteLength":16,"name":"bufferViewAnimationFloatScalar"},{"buffer":0,"byteOffset":1715028,"byteLength":48,"name":"bufferViewAnimationFloatVec3"}],"buffers":[{"uri":"4_1965.bin","byteLength":1715076}],"materials":[{"pbrMetallicRoughness":{"baseColorFactor":[0.5,0.0,0.0,1.0],"metallicFactor":0.0,"roughnessFactor":0.2581639},"emissiveFactor":[0.0,0.0,0.0],"alphaMode":"OPAQUE","name":"red_pong"},{"pbrMetallicRoughness":{"baseColorFactor":[0.0,0.0,0.0,1.0],"metallicFactor":0.0,"roughnessFactor":0.450053632},"emissiveFactor":[0.0,0.0,0.0],"alphaMode":"OPAQUE","name":"black_lambert"},{"pbrMetallicRoughness":{"baseColorFactor":[0.0,0.0,0.0,1.0],"metallicFactor":0.0,"roughnessFactor":0.450053632},"emissiveFactor":[0.0,0.0,0.0],"alphaMode":"OPAQUE","name":"lambert91"},{"pbrMetallicRoughness":{"baseColorFactor":[1.0,1.0,1.0,1.0],"baseColorTexture":{"index":0,"texCoord":0},"metallicFactor":0.0,"roughnessFactor":0.450053632},"emissiveFactor":[0.0,0.0,0.0],"alphaMode":"OPAQUE","name":"g_m"}],"textures":[{"sampler":0,"source":0,"name":"g_m.jpg"}],"images":[{"uri":"g_m.jpg"}],"samplers":[{"magFilter":9729,"minFilter":9987,"wrapS":10497,"wrapT":10497}],"animations":[{"channels":[{"sampler":0,"target":{"node":2,"path":"translation"}}],"samplers":[{"input":35,"interpolation":"LINEAR","output":36}],"name":"back"},{"channels":[{"sampler":0,"target":{"node":2,"path":"translation"}}],"samplers":[{"input":37,"interpolation":"LINEAR","output":38}],"name":"out"}]}