{"asset":{"version":"2.0","generator":"babylon.js glTF exporter for Maya 2018 v20190916.7"},"scene":0,"scenes":[{"nodes":[0,1,2,3],"extensions":{}}],"nodes":[{"mesh":0,"translation":[1.70495951,0.0,14.2604437],"rotation":[0.0,0.0,0.0,1.0],"scale":[1.0,1.0,1.0],"name":"_collider24"},{"mesh":1,"translation":[1.70495951,0.0,14.2604437],"rotation":[0.0,0.0,0.0,1.0],"scale":[1.0,1.0,1.0],"name":"polySurface4481"},{"mesh":2,"translation":[0.0,0.0,-0.0469466969],"rotation":[0.0,0.0,0.0,1.0],"scale":[1.0,1.0,1.0],"name":"typeMesh56"},{"translation":[0.0,0.0,0.0],"rotation":[0.0,0.0,0.0,1.0],"scale":[1.0,1.0,1.0],"name":"Default light"}],"meshes":[{"primitives":[{"attributes":{"POSITION":1,"TANGENT":2,"NORMAL":3,"TEXCOORD_0":4},"indices":0,"mode":4,"material":0},{"attributes":{"POSITION":6,"TANGENT":7,"NORMAL":8,"TEXCOORD_0":9},"indices":5,"mode":4,"material":1}],"name":"_collider24"},{"primitives":[{"attributes":{"POSITION":11,"TANGENT":12,"NORMAL":13,"TEXCOORD_0":14},"indices":10,"mode":4,"material":0},{"attributes":{"POSITION":16,"TANGENT":17,"NORMAL":18,"TEXCOORD_0":19},"indices":15,"mode":4,"material":1}],"name":"polySurface4481"},{"primitives":[{"attributes":{"POSITION":21,"TANGENT":22,"NORMAL":23,"TEXCOORD_0":24},"indices":20,"mode":4,"material":1},{"attributes":{"POSITION":26,"TANGENT":27,"NORMAL":28,"TEXCOORD_0":29},"indices":25,"mode":4,"material":2},{"attributes":{"POSITION":31,"TANGENT":32,"NORMAL":33,"TEXCOORD_0":34},"indices":30,"mode":4,"material":3}],"name":"typeMesh56"}],"accessors":[{"bufferView":0,"componentType":5123,"count":78,"type":"SCALAR","name":"accessorIndices"},{"bufferView":1,"componentType":5126,"count":36,"max":[3.87351775,2.17323279,17.9082146],"min":[3.5524056,1.9616158,17.6275883],"type":"VEC3","name":"accessorPositions"},{"bufferView":2,"componentType":5126,"count":36,"type":"VEC4","name":"accessorTangents"},{"bufferView":1,"byteOffset":432,"componentType":5126,"count":36,"type":"VEC3","name":"accessorNormals"},{"bufferView":3,"componentType":5126,"count":36,"type":"VEC2","name":"accessorUVs"},{"bufferView":0,"byteOffset":156,"componentType":5123,"count":36,"type":"SCALAR","name":"accessorIndices"},{"bufferView":1,"byteOffset":864,"componentType":5126,"count":24,"max":[3.91914058,1.97555637,17.9480858],"min":[3.50678229,0.242704213,17.5877171],"type":"VEC3","name":"accessorPositions"},{"bufferView":2,"byteOffset":576,"componentType":5126,"count":24,"type":"VEC4","name":"accessorTangents"},{"bufferView":1,"byteOffset":1152,"componentType":5126,"count":24,"type":"VEC3","name":"accessorNormals"},{"bufferView":3,"byteOffset":288,"componentType":5126,"count":24,"type":"VEC2","name":"accessorUVs"},{"bufferView":0,"byteOffset":228,"componentType":5123,"count":78,"type":"SCALAR","name":"accessorIndices"},{"bufferView":1,"byteOffset":1440,"componentType":5126,"count":36,"max":[3.87351775,2.17323279,17.9082146],"min":[3.5524056,1.9616158,17.6275883],"type":"VEC3","name":"accessorPositions"},{"bufferView":2,"byteOffset":960,"componentType":5126,"count":36,"type":"VEC4","name":"accessorTangents"},{"bufferView":1,"byteOffset":1872,"componentType":5126,"count":36,"type":"VEC3","name":"accessorNormals"},{"bufferView":3,"byteOffset":480,"componentType":5126,"count":36,"type":"VEC2","name":"accessorUVs"},{"bufferView":0,"byteOffset":384,"componentType":5123,"count":36,"type":"SCALAR","name":"accessorIndices"},{"bufferView":1,"byteOffset":2304,"componentType":5126,"count":24,"max":[3.91914058,1.97555637,17.9480858],"min":[3.50678229,0.242704213,17.5877171],"type":"VEC3","name":"accessorPositions"},{"bufferView":2,"byteOffset":1536,"componentType":5126,"count":24,"type":"VEC4","name":"accessorTangents"},{"bufferView":1,"byteOffset":2592,"componentType":5126,"count":24,"type":"VEC3","name":"accessorNormals"},{"bufferView":3,"byteOffset":768,"componentType":5126,"count":24,"type":"VEC2","name":"accessorUVs"},{"bufferView":0,"byteOffset":456,"componentType":5123,"count":46332,"type":"SCALAR","name":"accessorIndices"},{"bufferView":1,"byteOffset":2880,"componentType":5126,"count":13029,"max":[7.47028255,4.27360058,32.5733147],"min":[2.4736104,3.09157729,32.52393],"type":"VEC3","name":"accessorPositions"},{"bufferView":2,"byteOffset":1920,"componentType":5126,"count":13029,"type":"VEC4","name":"accessorTangents"},{"bufferView":1,"byteOffset":159228,"componentType":5126,"count":13029,"type":"VEC3","name":"accessorNormals"},{"bufferView":3,"byteOffset":960,"componentType":5126,"count":13029,"type":"VEC2","name":"accessorUVs"},{"bufferView":0,"byteOffset":93120,"componentType":5123,"count":78,"type":"SCALAR","name":"accessorIndices"},{"bufferView":1,"byteOffset":315576,"componentType":5126,"count":44,"max":[7.52599049,3.83475757,32.633316],"min":[5.950842,1.74506426,32.3868561],"type":"VEC3","name":"accessorPositions"},{"bufferView":2,"byteOffset":210384,"componentType":5126,"count":44,"type":"VEC4","name":"accessorTangents"},{"bufferView":1,"byteOffset":316104,"componentType":5126,"count":44,"type":"VEC3","name":"accessorNormals"},{"bufferView":3,"byteOffset":105192,"componentType":5126,"count":44,"type":"VEC2","name":"accessorUVs"},{"bufferView":0,"byteOffset":93276,"componentType":5123,"count":6,"type":"SCALAR","name":"accessorIndices"},{"bufferView":1,"byteOffset":316632,"componentType":5126,"count":4,"max":[7.374237,3.60072541,32.4892578],"min":[6.10259533,1.97909641,32.4892578],"type":"VEC3","name":"accessorPositions"},{"bufferView":2,"byteOffset":211088,"componentType":5126,"count":4,"type":"VEC4","name":"accessorTangents"},{"bufferView":1,"byteOffset":316680,"componentType":5126,"count":4,"type":"VEC3","name":"accessorNormals"},{"bufferView":3,"byteOffset":105544,"componentType":5126,"count":4,"type":"VEC2","name":"accessorUVs"},{"bufferView":4,"componentType":5126,"count":2,"max":[0.0333333351],"min":[0.0],"type":"SCALAR","name":"accessorAnimationInput"},{"bufferView":5,"componentType":5126,"count":2,"type":"VEC3","name":"accessorAnimationPositions"},{"bufferView":4,"byteOffset":8,"componentType":5126,"count":2,"max":[0.06666667],"min":[0.0],"type":"SCALAR","name":"accessorAnimationInput"},{"bufferView":5,"byteOffset":24,"componentType":5126,"count":2,"type":"VEC3","name":"accessorAnimationPositions"}],"bufferViews":[{"buffer":0,"byteLength":93288,"name":"bufferViewScalar"},{"buffer":0,"byteOffset":93288,"byteLength":316728,"byteStride":12,"name":"bufferViewFloatVec3"},{"buffer":0,"byteOffset":410016,"byteLength":211152,"byteStride":16,"name":"bufferViewFloatVec4"},{"buffer":0,"byteOffset":621168,"byteLength":105576,"byteStride":8,"name":"bufferViewFloatVec2"},{"buffer":0,"byteOffset":726744,"byteLength":16,"name":"bufferViewAnimationFloatScalar"},{"buffer":0,"byteOffset":726760,"byteLength":48,"name":"bufferViewAnimationFloatVec3"}],"buffers":[{"uri":"6_2017.bin","byteLength":726808}],"materials":[{"pbrMetallicRoughness":{"baseColorFactor":[0.5,0.0,0.0,1.0],"metallicFactor":0.0,"roughnessFactor":0.2581639},"emissiveFactor":[0.0,0.0,0.0],"alphaMode":"OPAQUE","name":"red_pong"},{"pbrMetallicRoughness":{"baseColorFactor":[0.0,0.0,0.0,1.0],"metallicFactor":0.0,"roughnessFactor":0.450053632},"emissiveFactor":[0.0,0.0,0.0],"alphaMode":"OPAQUE","name":"black_lambert"},{"pbrMetallicRoughness":{"baseColorFactor":[0.0,0.0,0.0,1.0],"metallicFactor":0.0,"roughnessFactor":0.450053632},"emissiveFactor":[0.0,0.0,0.0],"alphaMode":"OPAQUE","name":"lambert91"},{"pbrMetallicRoughness":{"baseColorFactor":[1.0,1.0,1.0,1.0],"baseColorTexture":{"index":0,"texCoord":0},"metallicFactor":0.0,"roughnessFactor":0.450053632},"emissiveFactor":[0.0,0.0,0.0],"alphaMode":"OPAQUE","name":"lambert117"}],"textures":[{"sampler":0,"source":0,"name":"seo.png"}],"images":[{"uri":"seo.png"}],"samplers":[{"magFilter":9729,"minFilter":9987,"wrapS":10497,"wrapT":10497}],"animations":[{"channels":[{"sampler":0,"target":{"node":2,"path":"translation"}}],"samplers":[{"input":35,"interpolation":"LINEAR","output":36}],"name":"back"},{"channels":[{"sampler":0,"target":{"node":2,"path":"translation"}}],"samplers":[{"input":37,"interpolation":"LINEAR","output":38}],"name":"out"}]}