{"asset":{"version":"2.0","generator":"babylon.js glTF exporter for Maya 2018 v20190916.7"},"scene":0,"scenes":[{"nodes":[0,1,2,3],"extensions":{}}],"nodes":[{"mesh":0,"translation":[0.1837393,0.0,0.0132482713],"rotation":[0.0,0.0,0.0,1.0],"scale":[1.0,1.0,1.0],"name":"typeMesh20"},{"mesh":1,"translation":[2.79701948,0.0,0.0],"rotation":[0.0,0.0,0.0,1.0],"scale":[1.0,1.0,1.0],"name":"polySurface4138"},{"mesh":2,"translation":[2.78748226,0.0,0.0],"rotation":[0.0,0.0,0.0,1.0],"scale":[1.0,1.0,1.0],"name":"_collider"},{"translation":[0.0,0.0,0.0],"rotation":[0.0,0.0,0.0,1.0],"scale":[1.0,1.0,1.0],"name":"Default light"}],"meshes":[{"primitives":[{"attributes":{"POSITION":1,"TANGENT":2,"NORMAL":3,"TEXCOORD_0":4},"indices":0,"mode":4,"material":0},{"attributes":{"POSITION":6,"TANGENT":7,"NORMAL":8,"TEXCOORD_0":9},"indices":5,"mode":4,"material":1},{"attributes":{"POSITION":11,"TANGENT":12,"NORMAL":13,"TEXCOORD_0":14},"indices":10,"mode":4,"material":2}],"name":"typeMesh20"},{"primitives":[{"attributes":{"POSITION":16,"TANGENT":17,"NORMAL":18,"TEXCOORD_0":19},"indices":15,"mode":4,"material":0},{"attributes":{"POSITION":21,"TANGENT":22,"NORMAL":23,"TEXCOORD_0":24},"indices":20,"mode":4,"material":3}],"name":"polySurface4138"},{"primitives":[{"attributes":{"POSITION":26,"TANGENT":27,"NORMAL":28,"TEXCOORD_0":29},"indices":25,"mode":4,"material":0},{"attributes":{"POSITION":31,"TANGENT":32,"NORMAL":33,"TEXCOORD_0":34},"indices":30,"mode":4,"material":3}],"name":"_collider"}],"accessors":[{"bufferView":0,"componentType":5123,"count":5016,"type":"SCALAR","name":"accessorIndices"},{"bufferView":1,"componentType":5126,"count":1738,"max":[4.91908,4.19171047,3.97520018],"min":[-0.3641739,2.674253,3.94037437],"type":"VEC3","name":"accessorPositions"},{"bufferView":2,"componentType":5126,"count":1738,"type":"VEC4","name":"accessorTangents"},{"bufferView":1,"byteOffset":20856,"componentType":5126,"count":1738,"type":"VEC3","name":"accessorNormals"},{"bufferView":3,"componentType":5126,"count":1738,"type":"VEC2","name":"accessorUVs"},{"bufferView":0,"byteOffset":10032,"componentType":5123,"count":78,"type":"SCALAR","name":"accessorIndices"},{"bufferView":1,"byteOffset":41712,"componentType":5126,"count":44,"max":[5.04154873,3.83475757,4.021685],"min":[3.46639943,1.74506426,3.77522421],"type":"VEC3","name":"accessorPositions"},{"bufferView":2,"byteOffset":27808,"componentType":5126,"count":44,"type":"VEC4","name":"accessorTangents"},{"bufferView":1,"byteOffset":42240,"componentType":5126,"count":44,"type":"VEC3","name":"accessorNormals"},{"bufferView":3,"byteOffset":13904,"componentType":5126,"count":44,"type":"VEC2","name":"accessorUVs"},{"bufferView":0,"byteOffset":10188,"componentType":5123,"count":6,"type":"SCALAR","name":"accessorIndices"},{"bufferView":1,"byteOffset":42768,"componentType":5126,"count":4,"max":[4.88979435,3.60072541,3.877625],"min":[3.61815286,1.97909641,3.877625],"type":"VEC3","name":"accessorPositions"},{"bufferView":2,"byteOffset":28512,"componentType":5126,"count":4,"type":"VEC4","name":"accessorTangents"},{"bufferView":1,"byteOffset":42816,"componentType":5126,"count":4,"type":"VEC3","name":"accessorNormals"},{"bufferView":3,"byteOffset":14256,"componentType":5126,"count":4,"type":"VEC2","name":"accessorUVs"},{"bufferView":0,"byteOffset":10200,"componentType":5123,"count":36,"type":"SCALAR","name":"accessorIndices"},{"bufferView":1,"byteOffset":42864,"componentType":5126,"count":24,"max":[0.438083649,1.97555637,3.79971981],"min":[0.0257253647,0.242704213,3.439352],"type":"VEC3","name":"accessorPositions"},{"bufferView":2,"byteOffset":28576,"componentType":5126,"count":24,"type":"VEC4","name":"accessorTangents"},{"bufferView":1,"byteOffset":43152,"componentType":5126,"count":24,"type":"VEC3","name":"accessorNormals"},{"bufferView":3,"byteOffset":14288,"componentType":5126,"count":24,"type":"VEC2","name":"accessorUVs"},{"bufferView":0,"byteOffset":10272,"componentType":5123,"count":78,"type":"SCALAR","name":"accessorIndices"},{"bufferView":1,"byteOffset":43440,"componentType":5126,"count":36,"max":[0.392460823,2.17323279,3.75984859],"min":[0.07134867,1.9616158,3.47922277],"type":"VEC3","name":"accessorPositions"},{"bufferView":2,"byteOffset":28960,"componentType":5126,"count":36,"type":"VEC4","name":"accessorTangents"},{"bufferView":1,"byteOffset":43872,"componentType":5126,"count":36,"type":"VEC3","name":"accessorNormals"},{"bufferView":3,"byteOffset":14480,"componentType":5126,"count":36,"type":"VEC2","name":"accessorUVs"},{"bufferView":0,"byteOffset":10428,"componentType":5123,"count":36,"type":"SCALAR","name":"accessorIndices"},{"bufferView":1,"byteOffset":44304,"componentType":5126,"count":24,"max":[0.438083649,1.97555637,3.79971981],"min":[0.0257253647,0.242704213,3.439352],"type":"VEC3","name":"accessorPositions"},{"bufferView":2,"byteOffset":29536,"componentType":5126,"count":24,"type":"VEC4","name":"accessorTangents"},{"bufferView":1,"byteOffset":44592,"componentType":5126,"count":24,"type":"VEC3","name":"accessorNormals"},{"bufferView":3,"byteOffset":14768,"componentType":5126,"count":24,"type":"VEC2","name":"accessorUVs"},{"bufferView":0,"byteOffset":10500,"componentType":5123,"count":78,"type":"SCALAR","name":"accessorIndices"},{"bufferView":1,"byteOffset":44880,"componentType":5126,"count":36,"max":[0.392460823,2.17323279,3.75984859],"min":[0.07134867,1.9616158,3.47922277],"type":"VEC3","name":"accessorPositions"},{"bufferView":2,"byteOffset":29920,"componentType":5126,"count":36,"type":"VEC4","name":"accessorTangents"},{"bufferView":1,"byteOffset":45312,"componentType":5126,"count":36,"type":"VEC3","name":"accessorNormals"},{"bufferView":3,"byteOffset":14960,"componentType":5126,"count":36,"type":"VEC2","name":"accessorUVs"},{"bufferView":4,"componentType":5126,"count":2,"max":[0.0333333351],"min":[0.0],"type":"SCALAR","name":"accessorAnimationInput"},{"bufferView":5,"componentType":5126,"count":2,"type":"VEC3","name":"accessorAnimationPositions"},{"bufferView":4,"byteOffset":8,"componentType":5126,"count":2,"max":[0.06666667],"min":[0.0],"type":"SCALAR","name":"accessorAnimationInput"},{"bufferView":5,"byteOffset":24,"componentType":5126,"count":2,"type":"VEC3","name":"accessorAnimationPositions"}],"bufferViews":[{"buffer":0,"byteLength":10656,"name":"bufferViewScalar"},{"buffer":0,"byteOffset":10656,"byteLength":45744,"byteStride":12,"name":"bufferViewFloatVec3"},{"buffer":0,"byteOffset":56400,"byteLength":30496,"byteStride":16,"name":"bufferViewFloatVec4"},{"buffer":0,"byteOffset":86896,"byteLength":15248,"byteStride":8,"name":"bufferViewFloatVec2"},{"buffer":0,"byteOffset":102144,"byteLength":16,"name":"bufferViewAnimationFloatScalar"},{"buffer":0,"byteOffset":102160,"byteLength":48,"name":"bufferViewAnimationFloatVec3"}],"buffers":[{"uri":"2_1950_one.bin","byteLength":102208}],"materials":[{"pbrMetallicRoughness":{"baseColorFactor":[0.0,0.0,0.0,1.0],"metallicFactor":0.0,"roughnessFactor":0.450053632},"emissiveFactor":[0.0,0.0,0.0],"alphaMode":"OPAQUE","name":"black_lambert"},{"pbrMetallicRoughness":{"baseColorFactor":[0.0,0.0,0.0,1.0],"metallicFactor":0.0,"roughnessFactor":0.450053632},"emissiveFactor":[0.0,0.0,0.0],"alphaMode":"OPAQUE","name":"lambert91"},{"pbrMetallicRoughness":{"baseColorFactor":[1.0,1.0,1.0,1.0],"baseColorTexture":{"index":0,"texCoord":0},"metallicFactor":0.0,"roughnessFactor":0.450053632},"emissiveFactor":[0.0,0.0,0.0],"alphaMode":"OPAQUE","name":"lambert92"},{"pbrMetallicRoughness":{"baseColorFactor":[0.5,0.0,0.0,1.0],"metallicFactor":0.0,"roughnessFactor":0.2581639},"emissiveFactor":[0.0,0.0,0.0],"alphaMode":"OPAQUE","name":"red_pong"}],"textures":[{"sampler":0,"source":0,"name":"Alan-Turing.jpg"}],"images":[{"uri":"Alan-Turing.jpg"}],"samplers":[{"magFilter":9729,"minFilter":9987,"wrapS":10497,"wrapT":10497}],"animations":[{"channels":[{"sampler":0,"target":{"node":0,"path":"translation"}}],"samplers":[{"input":35,"interpolation":"LINEAR","output":36}],"name":"back"},{"channels":[{"sampler":0,"target":{"node":0,"path":"translation"}}],"samplers":[{"input":37,"interpolation":"LINEAR","output":38}],"name":"out"}]}