{"asset":{"version":"2.0","generator":"babylon.js glTF exporter for Maya 2018 v20190916.7"},"scene":0,"scenes":[{"nodes":[0,1],"extensions":{}}],"nodes":[{"mesh":0,"translation":[0.0,0.0,0.0],"rotation":[0.0,0.0,0.0,1.0],"scale":[1.0,1.0,1.0],"name":"polySurface3899"},{"translation":[0.0,0.0,0.0],"rotation":[0.0,0.0,0.0,1.0],"scale":[1.0,1.0,1.0],"name":"Default light"}],"meshes":[{"primitives":[{"attributes":{"POSITION":1,"TANGENT":2,"NORMAL":3,"TEXCOORD_0":4},"indices":0,"mode":4,"material":0},{"attributes":{"POSITION":6,"TANGENT":7,"NORMAL":8,"TEXCOORD_0":9},"indices":5,"mode":4,"material":1},{"attributes":{"POSITION":11,"TANGENT":12,"NORMAL":13,"TEXCOORD_0":14},"indices":10,"mode":4,"material":2},{"attributes":{"POSITION":16,"TANGENT":17,"NORMAL":18,"TEXCOORD_0":19},"indices":15,"mode":4,"material":3},{"attributes":{"POSITION":21,"TANGENT":22,"NORMAL":23,"TEXCOORD_0":24},"indices":20,"mode":4,"material":4},{"attributes":{"POSITION":26,"TANGENT":27,"NORMAL":28,"TEXCOORD_0":29},"indices":25,"mode":4,"material":5},{"attributes":{"POSITION":31,"TANGENT":32,"NORMAL":33,"TEXCOORD_0":34},"indices":30,"mode":4,"material":6},{"attributes":{"POSITION":36,"TANGENT":37,"NORMAL":38,"TEXCOORD_0":39},"indices":35,"mode":4,"material":7},{"attributes":{"POSITION":41,"TANGENT":42,"NORMAL":43,"TEXCOORD_0":44},"indices":40,"mode":4,"material":8}],"name":"polySurface3899"}],"accessors":[{"bufferView":0,"componentType":5123,"count":11208,"type":"SCALAR","name":"accessorIndices"},{"bufferView":1,"componentType":5126,"count":3888,"max":[12.2898083,4.19171047,-4.08216333],"min":[3.07681036,0.242704213,-6.4293704],"type":"VEC3","name":"accessorPositions"},{"bufferView":2,"componentType":5126,"count":3888,"type":"VEC4","name":"accessorTangents"},{"bufferView":1,"byteOffset":46656,"componentType":5126,"count":3888,"type":"VEC3","name":"accessorNormals"},{"bufferView":3,"componentType":5126,"count":3888,"type":"VEC2","name":"accessorUVs"},{"bufferView":0,"byteOffset":22416,"componentType":5123,"count":804,"type":"SCALAR","name":"accessorIndices"},{"bufferView":1,"byteOffset":93312,"componentType":5126,"count":414,"max":[13.6373844,6.02584457,-3.290175],"min":[1.26278973,-0.3019855,-9.9526825],"type":"VEC3","name":"accessorPositions"},{"bufferView":2,"byteOffset":62208,"componentType":5126,"count":414,"type":"VEC4","name":"accessorTangents"},{"bufferView":1,"byteOffset":98280,"componentType":5126,"count":414,"type":"VEC3","name":"accessorNormals"},{"bufferView":3,"byteOffset":31104,"componentType":5126,"count":414,"type":"VEC2","name":"accessorUVs"},{"bufferView":0,"byteOffset":24024,"componentType":5123,"count":690,"type":"SCALAR","name":"accessorIndices"},{"bufferView":1,"byteOffset":103248,"componentType":5126,"count":659,"max":[13.6373844,6.02584457,-3.290175],"min":[1.26278973,-0.3019855,-9.9526825],"type":"VEC3","name":"accessorPositions"},{"bufferView":2,"byteOffset":68832,"componentType":5126,"count":659,"type":"VEC4","name":"accessorTangents"},{"bufferView":1,"byteOffset":111156,"componentType":5126,"count":659,"type":"VEC3","name":"accessorNormals"},{"bufferView":3,"byteOffset":34416,"componentType":5126,"count":659,"type":"VEC2","name":"accessorUVs"},{"bufferView":0,"byteOffset":25404,"componentType":5123,"count":78,"type":"SCALAR","name":"accessorIndices"},{"bufferView":1,"byteOffset":119064,"componentType":5126,"count":36,"max":[5.901861,2.17323279,-4.46195126],"min":[5.580749,1.9616158,-4.742577],"type":"VEC3","name":"accessorPositions"},{"bufferView":2,"byteOffset":79376,"componentType":5126,"count":36,"type":"VEC4","name":"accessorTangents"},{"bufferView":1,"byteOffset":119496,"componentType":5126,"count":36,"type":"VEC3","name":"accessorNormals"},{"bufferView":3,"byteOffset":39688,"componentType":5126,"count":36,"type":"VEC2","name":"accessorUVs"},{"bufferView":0,"byteOffset":25560,"componentType":5123,"count":78,"type":"SCALAR","name":"accessorIndices"},{"bufferView":1,"byteOffset":119928,"componentType":5126,"count":44,"max":[7.95193958,3.83475757,-4.0395236],"min":[6.37679052,1.74506426,-4.28598452],"type":"VEC3","name":"accessorPositions"},{"bufferView":2,"byteOffset":79952,"componentType":5126,"count":44,"type":"VEC4","name":"accessorTangents"},{"bufferView":1,"byteOffset":120456,"componentType":5126,"count":44,"type":"VEC3","name":"accessorNormals"},{"bufferView":3,"byteOffset":39976,"componentType":5126,"count":44,"type":"VEC2","name":"accessorUVs"},{"bufferView":0,"byteOffset":25716,"componentType":5123,"count":6,"type":"SCALAR","name":"accessorIndices"},{"bufferView":1,"byteOffset":120984,"componentType":5126,"count":4,"max":[7.80018568,3.60072541,-4.18358374],"min":[6.528544,1.97909641,-4.18358374],"type":"VEC3","name":"accessorPositions"},{"bufferView":2,"byteOffset":80656,"componentType":5126,"count":4,"type":"VEC4","name":"accessorTangents"},{"bufferView":1,"byteOffset":121032,"componentType":5126,"count":4,"type":"VEC3","name":"accessorNormals"},{"bufferView":3,"byteOffset":40328,"componentType":5126,"count":4,"type":"VEC2","name":"accessorUVs"},{"bufferView":0,"byteOffset":25728,"componentType":5123,"count":36,"type":"SCALAR","name":"accessorIndices"},{"bufferView":1,"byteOffset":121080,"componentType":5126,"count":24,"max":[10.5849152,0.5,-3.02407312],"min":[9.584915,-0.5,-4.024073],"type":"VEC3","name":"accessorPositions"},{"bufferView":2,"byteOffset":80720,"componentType":5126,"count":24,"type":"VEC4","name":"accessorTangents"},{"bufferView":1,"byteOffset":121368,"componentType":5126,"count":24,"type":"VEC3","name":"accessorNormals"},{"bufferView":3,"byteOffset":40360,"componentType":5126,"count":24,"type":"VEC2","name":"accessorUVs"},{"bufferView":0,"byteOffset":25800,"componentType":5123,"count":72,"type":"SCALAR","name":"accessorIndices"},{"bufferView":1,"byteOffset":121656,"componentType":5126,"count":48,"max":[12.3694048,2.83688116,-3.99025822],"min":[8.869676,1.67035186,-4.79507065],"type":"VEC3","name":"accessorPositions"},{"bufferView":2,"byteOffset":81104,"componentType":5126,"count":48,"type":"VEC4","name":"accessorTangents"},{"bufferView":1,"byteOffset":122232,"componentType":5126,"count":48,"type":"VEC3","name":"accessorNormals"},{"bufferView":3,"byteOffset":40552,"componentType":5126,"count":48,"type":"VEC2","name":"accessorUVs"},{"bufferView":0,"byteOffset":25944,"componentType":5123,"count":60,"type":"SCALAR","name":"accessorIndices"},{"bufferView":1,"byteOffset":122808,"componentType":5126,"count":40,"max":[13.6373844,6.02584457,-3.290175],"min":[1.26278973,-0.3019855,-9.9526825],"type":"VEC3","name":"accessorPositions"},{"bufferView":2,"byteOffset":81872,"componentType":5126,"count":40,"type":"VEC4","name":"accessorTangents"},{"bufferView":1,"byteOffset":123288,"componentType":5126,"count":40,"type":"VEC3","name":"accessorNormals"},{"bufferView":3,"byteOffset":40936,"componentType":5126,"count":40,"type":"VEC2","name":"accessorUVs"}],"bufferViews":[{"buffer":0,"byteLength":26064,"name":"bufferViewScalar"},{"buffer":0,"byteOffset":26064,"byteLength":123768,"byteStride":12,"name":"bufferViewFloatVec3"},{"buffer":0,"byteOffset":149832,"byteLength":82512,"byteStride":16,"name":"bufferViewFloatVec4"},{"buffer":0,"byteOffset":232344,"byteLength":41256,"byteStride":8,"name":"bufferViewFloatVec2"}],"buffers":[{"uri":"1950_7.bin","byteLength":273600}],"materials":[{"pbrMetallicRoughness":{"baseColorFactor":[0.0,0.0,0.0,1.0],"metallicFactor":0.0,"roughnessFactor":0.450053632},"emissiveFactor":[0.0,0.0,0.0],"alphaMode":"OPAQUE","name":"black_lambert"},{"pbrMetallicRoughness":{"baseColorFactor":[0.5,0.5,0.5,1.0],"metallicFactor":0.0,"roughnessFactor":0.450053632},"emissiveFactor":[0.0,0.0,0.0],"alphaMode":"OPAQUE","name":"white_lambert"},{"pbrMetallicRoughness":{"baseColorFactor":[0.130712986,0.130712986,0.130712986,1.0],"metallicFactor":0.0,"roughnessFactor":0.450053632},"emissiveFactor":[0.0,0.0,0.0],"alphaMode":"OPAQUE","name":"Gray_labert"},{"pbrMetallicRoughness":{"baseColorFactor":[0.5,0.0,0.0,1.0],"metallicFactor":0.0,"roughnessFactor":0.2581639},"emissiveFactor":[0.0,0.0,0.0],"alphaMode":"OPAQUE","name":"red_pong"},{"pbrMetallicRoughness":{"baseColorFactor":[0.006849315,0.006849315,0.006849315,1.0],"metallicFactor":0.0,"roughnessFactor":0.450053632},"emissiveFactor":[0.0,0.0,0.0],"alphaMode":"OPAQUE","name":"lambert91"},{"pbrMetallicRoughness":{"baseColorFactor":[1.0,1.0,1.0,1.0],"baseColorTexture":{"index":0,"texCoord":0},"metallicFactor":0.0,"roughnessFactor":0.450053632},"emissiveFactor":[0.0,0.0,0.0],"alphaMode":"OPAQUE","name":"lambert92"},{"pbrMetallicRoughness":{"baseColorFactor":[1.0,1.0,1.0,1.0],"baseColorTexture":{"index":1,"texCoord":0},"metallicFactor":0.0,"roughnessFactor":0.450053632},"emissiveFactor":[0.0,0.0,0.0],"alphaMode":"OPAQUE","name":"lambert1"},{"pbrMetallicRoughness":{"baseColorFactor":[1.0,1.0,1.0,1.0],"baseColorTexture":{"index":2,"texCoord":0},"metallicFactor":0.0,"roughnessFactor":0.450053632},"emissiveFactor":[0.0,0.0,0.0],"alphaMode":"OPAQUE","name":"lambert98"},{"pbrMetallicRoughness":{"baseColorFactor":[1.0,1.0,1.0,1.0],"baseColorTexture":{"index":3,"texCoord":0},"metallicFactor":0.0,"roughnessFactor":0.450053632},"emissiveFactor":[0.0,0.0,0.0],"alphaMode":"OPAQUE","name":"wall_white"}],"textures":[{"sampler":0,"source":0,"name":"Alan-Turing.jpg"},{"sampler":0,"source":1,"name":"trading_booth_cetner.jpg"},{"sampler":0,"source":2,"name":"shelf_wood.jpg"},{"sampler":0,"source":3,"name":"wall_texture_white.jpg"}],"images":[{"uri":"Alan-Turing.jpg"},{"uri":"trading_booth_cetner.jpg"},{"uri":"shelf_wood.jpg"},{"uri":"wall_texture_white.jpg"}],"samplers":[{"magFilter":9729,"minFilter":9987,"wrapS":10497,"wrapT":10497}]}