{"asset":{"version":"2.0","generator":"babylon.js glTF exporter for Maya 2018 v20190916.7"},"scene":0,"scenes":[{"nodes":[0,1,2,3,4,5,6,7,8,9,10,11,12,13,14,15,16,17,18,19,20,21,22],"extensions":{}}],"nodes":[{"mesh":0,"translation":[-0.5000808,5.52644062,-5.705887],"rotation":[0.0,1.0,0.0,6.123234E-17],"scale":[2.16378,2.87060881,0.338562727],"name":"pCube249"},{"mesh":1,"translation":[-2.35644531,2.199999,-6.05754328],"rotation":[0.0,1.0,0.0,6.123234E-17],"scale":[1.03152847,2.781779,0.437643647],"name":"pCube252"},{"mesh":2,"translation":[0.951518953,6.599138,-6.53948927],"rotation":[0.0,0.0,0.0,1.0],"scale":[0.0257999245,0.0257999245,0.292644083],"name":"typeMesh15"},{"mesh":3,"translation":[-7.13447332,5.644035,-5.65136],"rotation":[0.0,0.0,1.0,6.123234E-17],"scale":[1.03152847,0.0431971364,-1.05939388],"name":"pCube253"},{"mesh":4,"translation":[-1.41671741,7.17507839,-6.26627445],"rotation":[0.0,0.0,0.0,1.0],"scale":[0.0217373576,0.0217373576,0.1819849],"name":"typeMesh16"},{"mesh":5,"translation":[-5.37913561,5.644035,-5.65136],"rotation":[0.0,0.0,1.0,6.123234E-17],"scale":[0.02927261,0.0431971364,-1.05939388],"name":"pCube254"},{"mesh":6,"translation":[0.0,0.0,0.0],"rotation":[0.0,0.0,0.0,1.0],"scale":[1.0,1.0,1.0],"name":"pCube255"},{"mesh":7,"translation":[-2.99871087,2.935981,1.42497742],"rotation":[0.6716062,-0.221235514,-0.221235514,0.6716062],"scale":[0.7434607,0.117968991,0.117968991],"name":"pCube256"},{"mesh":8,"translation":[-5.13093853,6.55667,-6.320876],"rotation":[0.0,0.0,0.0,1.0],"scale":[0.02041762,0.02041762,0.231593534],"name":"typeMesh19"},{"mesh":9,"translation":[-6.64926338,5.83864975,-4.90527868],"rotation":[0.0,0.143276125,0.0,0.989682734],"scale":[0.97374177,0.346987337,0.97374177],"name":"pCube257"},{"mesh":10,"translation":[-3.15386057,3.575314,-5.00951529],"rotation":[0.0,-0.521714747,0.0,0.85312],"scale":[0.6036528,0.468090147,0.6036528],"name":"pCube262"},{"mesh":11,"translation":[-7.13447332,4.116731,-5.65136],"rotation":[0.0,0.0,1.0,6.123234E-17],"scale":[1.03152847,0.0431971364,-1.05939388],"name":"pCube263"},{"mesh":12,"translation":[-3.74133182,2.06498671,-4.97235775],"rotation":[0.0,-0.198345855,0.0,0.9801321],"scale":[0.6036528,0.468090147,0.6036528],"name":"pCube264"},{"mesh":13,"translation":[-3.09199977,2.935981,1.42497742],"rotation":[0.23302716,-0.6676064,-0.6676064,0.23302716],"scale":[0.7434607,0.117968991,0.117968991],"name":"pCube265"},{"mesh":14,"translation":[-7.57237,6.518608,-6.39557838],"rotation":[0.0,0.0,0.0,1.0],"scale":[0.02041762,0.02041762,0.231593534],"name":"typeMesh20"},{"mesh":15,"translation":[-8.057423,5.302743,-4.88001966],"rotation":[0.0,0.0,1.0,6.123234E-17],"scale":[0.0289591178,0.439602882,-0.227751985],"name":"pCube266"},{"mesh":16,"translation":[-2.400446,5.302743,-4.88001966],"rotation":[-1.0,0.0,0.0,6.123234E-17],"scale":[0.0289591178,0.439602882,-0.227751985],"name":"pCube267"},{"mesh":17,"translation":[5.72306252,2.199999,-6.092308],"rotation":[0.0,0.707106769,0.0,0.707106769],"scale":[1.03152847,2.781779,0.437643647],"name":"pCube268"},{"mesh":18,"translation":[-7.22719574,4.211789,-5.649066],"rotation":[0.0,0.0,0.0,1.0],"scale":[0.02041762,0.02041762,0.231593534],"name":"typeMesh21"},{"mesh":19,"translation":[-8.792327,7.80257559,-3.206693],"rotation":[0.0,-0.707106769,0.0,0.707106769],"scale":[0.02041762,0.02041762,0.0395452641],"name":"typeMesh22"},{"mesh":20,"translation":[-0.5862758,1.70953155,-5.102133],"rotation":[0.0,0.0,0.0,1.0],"scale":[0.853126645,2.38041663,0.853126645],"name":"pCube269"},{"mesh":21,"translation":[-0.5862758,2.965682,-5.102133],"rotation":[0.0,0.0,0.0,1.0],"scale":[0.664347,0.411211371,0.664347],"name":"pCube270"},{"translation":[0.0,0.0,0.0],"rotation":[0.0,0.0,0.0,1.0],"scale":[1.0,1.0,1.0],"name":"Default light"}],"meshes":[{"primitives":[{"attributes":{"POSITION":1,"TANGENT":2,"NORMAL":3,"TEXCOORD_0":4},"indices":0,"mode":4,"material":0},{"attributes":{"POSITION":6,"TANGENT":7,"NORMAL":8,"TEXCOORD_0":9},"indices":5,"mode":4,"material":1}],"name":"pCube249"},{"primitives":[{"attributes":{"POSITION":11,"TANGENT":12,"NORMAL":13,"TEXCOORD_0":14},"indices":10,"mode":4,"material":2}],"name":"pCube252"},{"primitives":[{"attributes":{"POSITION":16,"TANGENT":17,"NORMAL":18,"TEXCOORD_0":19},"indices":15,"mode":4,"material":3}],"name":"typeMesh15"},{"primitives":[{"attributes":{"POSITION":21,"TANGENT":22,"NORMAL":23,"TEXCOORD_0":24},"indices":20,"mode":4,"material":4}],"name":"pCube253"},{"primitives":[{"attributes":{"POSITION":26,"TANGENT":27,"NORMAL":28,"TEXCOORD_0":29},"indices":25,"mode":4,"material":3}],"name":"typeMesh16"},{"primitives":[{"attributes":{"POSITION":31,"TANGENT":32,"NORMAL":33,"TEXCOORD_0":34},"indices":30,"mode":4,"material":4}],"name":"pCube254"},{"primitives":[{"attributes":{"POSITION":36,"TANGENT":37,"NORMAL":38,"TEXCOORD_0":39},"indices":35,"mode":4,"material":5}],"name":"pCube255"},{"primitives":[{"attributes":{"POSITION":41,"TANGENT":42,"NORMAL":43,"TEXCOORD_0":44},"indices":40,"mode":4,"material":3}],"name":"pCube256"},{"primitives":[{"attributes":{"POSITION":46,"TANGENT":47,"NORMAL":48,"TEXCOORD_0":49},"indices":45,"mode":4,"material":3}],"name":"typeMesh19"},{"primitives":[{"attributes":{"POSITION":51,"TANGENT":52,"NORMAL":53,"TEXCOORD_0":54},"indices":50,"mode":4,"material":6}],"name":"pCube257"},{"primitives":[{"attributes":{"POSITION":56,"TANGENT":57,"NORMAL":58,"TEXCOORD_0":59},"indices":55,"mode":4,"material":2}],"name":"pCube262"},{"primitives":[{"attributes":{"POSITION":61,"TANGENT":62,"NORMAL":63,"TEXCOORD_0":64},"indices":60,"mode":4,"material":4}],"name":"pCube263"},{"primitives":[{"attributes":{"POSITION":66,"TANGENT":67,"NORMAL":68,"TEXCOORD_0":69},"indices":65,"mode":4,"material":2}],"name":"pCube264"},{"primitives":[{"attributes":{"POSITION":71,"TANGENT":72,"NORMAL":73,"TEXCOORD_0":74},"indices":70,"mode":4,"material":3}],"name":"pCube265"},{"primitives":[{"attributes":{"POSITION":76,"TANGENT":77,"NORMAL":78,"TEXCOORD_0":79},"indices":75,"mode":4,"material":3}],"name":"typeMesh20"},{"primitives":[{"attributes":{"POSITION":81,"TANGENT":82,"NORMAL":83,"TEXCOORD_0":84},"indices":80,"mode":4,"material":3}],"name":"pCube266"},{"primitives":[{"attributes":{"POSITION":86,"TANGENT":87,"NORMAL":88,"TEXCOORD_0":89},"indices":85,"mode":4,"material":3}],"name":"pCube267"},{"primitives":[{"attributes":{"POSITION":91,"TANGENT":92,"NORMAL":93,"TEXCOORD_0":94},"indices":90,"mode":4,"material":2}],"name":"pCube268"},{"primitives":[{"attributes":{"POSITION":96,"TANGENT":97,"NORMAL":98,"TEXCOORD_0":99},"indices":95,"mode":4,"material":3}],"name":"typeMesh21"},{"primitives":[{"attributes":{"POSITION":101,"TANGENT":102,"NORMAL":103,"TEXCOORD_0":104},"indices":100,"mode":4,"material":3}],"name":"typeMesh22"},{"primitives":[{"attributes":{"POSITION":106,"TANGENT":107,"NORMAL":108,"TEXCOORD_0":109},"indices":105,"mode":4,"material":3}],"name":"pCube269"},{"primitives":[{"attributes":{"POSITION":111,"TANGENT":112,"NORMAL":113,"TEXCOORD_0":114},"indices":110,"mode":4,"material":7}],"name":"pCube270"}],"accessors":[{"bufferView":0,"componentType":5123,"count":78,"type":"SCALAR","name":"accessorIndices"},{"bufferView":1,"componentType":5126,"count":44,"max":[0.5,0.5,0.5],"min":[-0.5,-0.5,-0.5],"type":"VEC3","name":"accessorPositions"},{"bufferView":2,"componentType":5126,"count":44,"type":"VEC4","name":"accessorTangents"},{"bufferView":1,"byteOffset":528,"componentType":5126,"count":44,"type":"VEC3","name":"accessorNormals"},{"bufferView":3,"componentType":5126,"count":44,"type":"VEC2","name":"accessorUVs"},{"bufferView":0,"byteOffset":156,"componentType":5123,"count":6,"type":"SCALAR","name":"accessorIndices"},{"bufferView":1,"byteOffset":1056,"componentType":5126,"count":4,"max":[0.4036576,0.388006449,-0.08451438],"min":[-0.4036576,-0.388006449,-0.08451438],"type":"VEC3","name":"accessorPositions"},{"bufferView":2,"byteOffset":704,"componentType":5126,"count":4,"type":"VEC4","name":"accessorTangents"},{"bufferView":1,"byteOffset":1104,"componentType":5126,"count":4,"type":"VEC3","name":"accessorNormals"},{"bufferView":3,"byteOffset":352,"componentType":5126,"count":4,"type":"VEC2","name":"accessorUVs"},{"bufferView":0,"byteOffset":168,"componentType":5123,"count":36,"type":"SCALAR","name":"accessorIndices"},{"bufferView":1,"byteOffset":1152,"componentType":5126,"count":24,"max":[8.570875,2.62481046,0.5],"min":[-7.90851974,-0.5,-0.5],"type":"VEC3","name":"accessorPositions"},{"bufferView":2,"byteOffset":768,"componentType":5126,"count":24,"type":"VEC4","name":"accessorTangents"},{"bufferView":1,"byteOffset":1440,"componentType":5126,"count":24,"type":"VEC3","name":"accessorNormals"},{"bufferView":3,"byteOffset":384,"componentType":5126,"count":24,"type":"VEC2","name":"accessorUVs"},{"bufferView":0,"byteOffset":240,"componentType":5123,"count":4068,"type":"SCALAR","name":"accessorIndices"},{"bufferView":1,"byteOffset":1728,"componentType":5126,"count":1408,"max":[161.375214,12.7436371,2.5],"min":[0.145123973,-40.2016525,2.5],"type":"VEC3","name":"accessorPositions"},{"bufferView":2,"byteOffset":1152,"componentType":5126,"count":1408,"type":"VEC4","name":"accessorTangents"},{"bufferView":1,"byteOffset":18624,"componentType":5126,"count":1408,"type":"VEC3","name":"accessorNormals"},{"bufferView":3,"byteOffset":576,"componentType":5126,"count":1408,"type":"VEC2","name":"accessorUVs"},{"bufferView":0,"byteOffset":8376,"componentType":5123,"count":36,"type":"SCALAR","name":"accessorIndices"},{"bufferView":1,"byteOffset":35520,"componentType":5126,"count":24,"max":[0.5,2.62481046,0.5],"min":[-4.1606307,-0.5,-1.05943418],"type":"VEC3","name":"accessorPositions"},{"bufferView":2,"byteOffset":23680,"componentType":5126,"count":24,"type":"VEC4","name":"accessorTangents"},{"bufferView":1,"byteOffset":35808,"componentType":5126,"count":24,"type":"VEC3","name":"accessorNormals"},{"bufferView":3,"byteOffset":11840,"componentType":5126,"count":24,"type":"VEC2","name":"accessorUVs"},{"bufferView":0,"byteOffset":8448,"componentType":5123,"count":882,"type":"SCALAR","name":"accessorIndices"},{"bufferView":1,"byteOffset":36096,"componentType":5126,"count":310,"max":[92.11901,12.7436371,2.5],"min":[0.137190089,-3.38148761,2.5],"type":"VEC3","name":"accessorPositions"},{"bufferView":2,"byteOffset":24064,"componentType":5126,"count":310,"type":"VEC4","name":"accessorTangents"},{"bufferView":1,"byteOffset":39816,"componentType":5126,"count":310,"type":"VEC3","name":"accessorNormals"},{"bufferView":3,"byteOffset":12032,"componentType":5126,"count":310,"type":"VEC2","name":"accessorUVs"},{"bufferView":0,"byteOffset":10212,"componentType":5123,"count":36,"type":"SCALAR","name":"accessorIndices"},{"bufferView":1,"byteOffset":43536,"componentType":5126,"count":24,"max":[0.5,2.62481046,0.5],"min":[-4.1606307,-35.83749,-1.05210662],"type":"VEC3","name":"accessorPositions"},{"bufferView":2,"byteOffset":29024,"componentType":5126,"count":24,"type":"VEC4","name":"accessorTangents"},{"bufferView":1,"byteOffset":43824,"componentType":5126,"count":24,"type":"VEC3","name":"accessorNormals"},{"bufferView":3,"byteOffset":14512,"componentType":5126,"count":24,"type":"VEC2","name":"accessorUVs"},{"bufferView":0,"byteOffset":10284,"componentType":5123,"count":36,"type":"SCALAR","name":"accessorIndices"},{"bufferView":1,"byteOffset":44112,"componentType":5126,"count":24,"max":[0.5,0.5,0.5],"min":[-0.5,-0.5,-0.5],"type":"VEC3","name":"accessorPositions"},{"bufferView":2,"byteOffset":29408,"componentType":5126,"count":24,"type":"VEC4","name":"accessorTangents"},{"bufferView":1,"byteOffset":44400,"componentType":5126,"count":24,"type":"VEC3","name":"accessorNormals"},{"bufferView":3,"byteOffset":14704,"componentType":5126,"count":24,"type":"VEC2","name":"accessorUVs"},{"bufferView":0,"byteOffset":10356,"componentType":5123,"count":132,"type":"SCALAR","name":"accessorIndices"},{"bufferView":1,"byteOffset":44688,"componentType":5126,"count":52,"max":[0.6409433,0.5,1.0222261],"min":[-0.5,-0.5,-1.0222261],"type":"VEC3","name":"accessorPositions"},{"bufferView":2,"byteOffset":29792,"componentType":5126,"count":52,"type":"VEC4","name":"accessorTangents"},{"bufferView":1,"byteOffset":45312,"componentType":5126,"count":52,"type":"VEC3","name":"accessorNormals"},{"bufferView":3,"byteOffset":14896,"componentType":5126,"count":52,"type":"VEC2","name":"accessorUVs"},{"bufferView":0,"byteOffset":10620,"componentType":5123,"count":1974,"type":"SCALAR","name":"accessorIndices"},{"bufferView":1,"byteOffset":45936,"componentType":5126,"count":674,"max":[94.29686,11.94463,2.5],"min":[1.54148769,-23.1879349,2.5],"type":"VEC3","name":"accessorPositions"},{"bufferView":2,"byteOffset":30624,"componentType":5126,"count":674,"type":"VEC4","name":"accessorTangents"},{"bufferView":1,"byteOffset":54024,"componentType":5126,"count":674,"type":"VEC3","name":"accessorNormals"},{"bufferView":3,"byteOffset":15312,"componentType":5126,"count":674,"type":"VEC2","name":"accessorUVs"},{"bufferView":0,"byteOffset":14568,"componentType":5123,"count":888,"type":"SCALAR","name":"accessorIndices"},{"bufferView":1,"byteOffset":62112,"componentType":5126,"count":325,"max":[0.5,0.5,0.5],"min":[-0.5,-0.5,-0.5],"type":"VEC3","name":"accessorPositions"},{"bufferView":2,"byteOffset":41408,"componentType":5126,"count":325,"type":"VEC4","name":"accessorTangents"},{"bufferView":1,"byteOffset":66012,"componentType":5126,"count":325,"type":"VEC3","name":"accessorNormals"},{"bufferView":3,"byteOffset":20704,"componentType":5126,"count":325,"type":"VEC2","name":"accessorUVs"},{"bufferView":0,"byteOffset":16344,"componentType":5123,"count":240,"type":"SCALAR","name":"accessorIndices"},{"bufferView":1,"byteOffset":69912,"componentType":5126,"count":128,"max":[0.802311659,6.27547646,0.21030134],"min":[-0.138085723,4.389328,-0.126288],"type":"VEC3","name":"accessorPositions"},{"bufferView":2,"byteOffset":46608,"componentType":5126,"count":128,"type":"VEC4","name":"accessorTangents"},{"bufferView":1,"byteOffset":71448,"componentType":5126,"count":128,"type":"VEC3","name":"accessorNormals"},{"bufferView":3,"byteOffset":23304,"componentType":5126,"count":128,"type":"VEC2","name":"accessorUVs"},{"bufferView":0,"byteOffset":16824,"componentType":5123,"count":36,"type":"SCALAR","name":"accessorIndices"},{"bufferView":1,"byteOffset":72984,"componentType":5126,"count":24,"max":[0.5,2.62481046,0.5],"min":[-4.1606307,-0.5,-1.05943418],"type":"VEC3","name":"accessorPositions"},{"bufferView":2,"byteOffset":48656,"componentType":5126,"count":24,"type":"VEC4","name":"accessorTangents"},{"bufferView":1,"byteOffset":73272,"componentType":5126,"count":24,"type":"VEC3","name":"accessorNormals"},{"bufferView":3,"byteOffset":24328,"componentType":5126,"count":24,"type":"VEC2","name":"accessorUVs"},{"bufferView":0,"byteOffset":16896,"componentType":5123,"count":240,"type":"SCALAR","name":"accessorIndices"},{"bufferView":1,"byteOffset":73560,"componentType":5126,"count":128,"max":[0.802311659,6.27547646,0.21030134],"min":[-0.138085723,4.389328,-0.126288],"type":"VEC3","name":"accessorPositions"},{"bufferView":2,"byteOffset":49040,"componentType":5126,"count":128,"type":"VEC4","name":"accessorTangents"},{"bufferView":1,"byteOffset":75096,"componentType":5126,"count":128,"type":"VEC3","name":"accessorNormals"},{"bufferView":3,"byteOffset":24520,"componentType":5126,"count":128,"type":"VEC2","name":"accessorUVs"},{"bufferView":0,"byteOffset":17376,"componentType":5123,"count":132,"type":"SCALAR","name":"accessorIndices"},{"bufferView":1,"byteOffset":76632,"componentType":5126,"count":52,"max":[0.6409433,0.5,1.0222261],"min":[-0.5,-0.5,-1.0222261],"type":"VEC3","name":"accessorPositions"},{"bufferView":2,"byteOffset":51088,"componentType":5126,"count":52,"type":"VEC4","name":"accessorTangents"},{"bufferView":1,"byteOffset":77256,"componentType":5126,"count":52,"type":"VEC3","name":"accessorNormals"},{"bufferView":3,"byteOffset":25544,"componentType":5126,"count":52,"type":"VEC2","name":"accessorUVs"},{"bufferView":0,"byteOffset":17640,"componentType":5123,"count":2142,"type":"SCALAR","name":"accessorIndices"},{"bufferView":1,"byteOffset":77880,"componentType":5126,"count":734,"max":[94.29686,12.7436371,2.5],"min":[1.54148769,-23.1879349,2.5],"type":"VEC3","name":"accessorPositions"},{"bufferView":2,"byteOffset":51920,"componentType":5126,"count":734,"type":"VEC4","name":"accessorTangents"},{"bufferView":1,"byteOffset":86688,"componentType":5126,"count":734,"type":"VEC3","name":"accessorNormals"},{"bufferView":3,"byteOffset":25960,"componentType":5126,"count":734,"type":"VEC2","name":"accessorUVs"},{"bufferView":0,"byteOffset":21924,"componentType":5123,"count":132,"type":"SCALAR","name":"accessorIndices"},{"bufferView":1,"byteOffset":95496,"componentType":5126,"count":71,"max":[0.5,2.3163085,0.5],"min":[-12.6004581,-1.58436918,-1.05943489],"type":"VEC3","name":"accessorPositions"},{"bufferView":2,"byteOffset":63664,"componentType":5126,"count":71,"type":"VEC4","name":"accessorTangents"},{"bufferView":1,"byteOffset":96348,"componentType":5126,"count":71,"type":"VEC3","name":"accessorNormals"},{"bufferView":3,"byteOffset":31832,"componentType":5126,"count":71,"type":"VEC2","name":"accessorUVs"},{"bufferView":0,"byteOffset":22188,"componentType":5123,"count":132,"type":"SCALAR","name":"accessorIndices"},{"bufferView":1,"byteOffset":97200,"componentType":5126,"count":71,"max":[0.5,2.3163085,0.5],"min":[-12.6004581,-1.58436918,-1.05943489],"type":"VEC3","name":"accessorPositions"},{"bufferView":2,"byteOffset":64800,"componentType":5126,"count":71,"type":"VEC4","name":"accessorTangents"},{"bufferView":1,"byteOffset":98052,"componentType":5126,"count":71,"type":"VEC3","name":"accessorNormals"},{"bufferView":3,"byteOffset":32400,"componentType":5126,"count":71,"type":"VEC2","name":"accessorUVs"},{"bufferView":0,"byteOffset":22452,"componentType":5123,"count":36,"type":"SCALAR","name":"accessorIndices"},{"bufferView":1,"byteOffset":98904,"componentType":5126,"count":24,"max":[0.2664227,2.62481046,0.5],"min":[-10.5349627,-0.5,-0.5],"type":"VEC3","name":"accessorPositions"},{"bufferView":2,"byteOffset":65936,"componentType":5126,"count":24,"type":"VEC4","name":"accessorTangents"},{"bufferView":1,"byteOffset":99192,"componentType":5126,"count":24,"type":"VEC3","name":"accessorNormals"},{"bufferView":3,"byteOffset":32968,"componentType":5126,"count":24,"type":"VEC2","name":"accessorUVs"},{"bufferView":0,"byteOffset":22524,"componentType":5123,"count":1848,"type":"SCALAR","name":"accessorIndices"},{"bufferView":1,"byteOffset":99480,"componentType":5126,"count":638,"max":[150.068756,12.2433071,2.5],"min":[1.54148769,-2.38892579,2.5],"type":"VEC3","name":"accessorPositions"},{"bufferView":2,"byteOffset":66320,"componentType":5126,"count":638,"type":"VEC4","name":"accessorTangents"},{"bufferView":1,"byteOffset":107136,"componentType":5126,"count":638,"type":"VEC3","name":"accessorNormals"},{"bufferView":3,"byteOffset":33160,"componentType":5126,"count":638,"type":"VEC2","name":"accessorUVs"},{"bufferView":0,"byteOffset":26220,"componentType":5123,"count":5766,"type":"SCALAR","name":"accessorIndices"},{"bufferView":1,"byteOffset":114792,"componentType":5126,"count":1551,"max":[40.65008,12.2433071,2.5],"min":[2.4292562,-0.298512429,0.0],"type":"VEC3","name":"accessorPositions"},{"bufferView":2,"byteOffset":76528,"componentType":5126,"count":1551,"type":"VEC4","name":"accessorTangents"},{"bufferView":1,"byteOffset":133404,"componentType":5126,"count":1551,"type":"VEC3","name":"accessorNormals"},{"bufferView":3,"byteOffset":38264,"componentType":5126,"count":1551,"type":"VEC2","name":"accessorUVs"},{"bufferView":0,"byteOffset":37752,"componentType":5123,"count":36,"type":"SCALAR","name":"accessorIndices"},{"bufferView":1,"byteOffset":152016,"componentType":5126,"count":24,"max":[0.5,0.5,0.5],"min":[-0.5,-0.5,-0.5],"type":"VEC3","name":"accessorPositions"},{"bufferView":2,"byteOffset":101344,"componentType":5126,"count":24,"type":"VEC4","name":"accessorTangents"},{"bufferView":1,"byteOffset":152304,"componentType":5126,"count":24,"type":"VEC3","name":"accessorNormals"},{"bufferView":3,"byteOffset":50672,"componentType":5126,"count":24,"type":"VEC2","name":"accessorUVs"},{"bufferView":0,"byteOffset":37824,"componentType":5123,"count":78,"type":"SCALAR","name":"accessorIndices"},{"bufferView":1,"byteOffset":152592,"componentType":5126,"count":36,"max":[0.5,0.5,0.5],"min":[-0.5,-0.2069308,-0.5],"type":"VEC3","name":"accessorPositions"},{"bufferView":2,"byteOffset":101728,"componentType":5126,"count":36,"type":"VEC4","name":"accessorTangents"},{"bufferView":1,"byteOffset":153024,"componentType":5126,"count":36,"type":"VEC3","name":"accessorNormals"},{"bufferView":3,"byteOffset":50864,"componentType":5126,"count":36,"type":"VEC2","name":"accessorUVs"}],"bufferViews":[{"buffer":0,"byteLength":37980,"name":"bufferViewScalar"},{"buffer":0,"byteOffset":37980,"byteLength":153456,"byteStride":12,"name":"bufferViewFloatVec3"},{"buffer":0,"byteOffset":191436,"byteLength":102304,"byteStride":16,"name":"bufferViewFloatVec4"},{"buffer":0,"byteOffset":293740,"byteLength":51152,"byteStride":8,"name":"bufferViewFloatVec2"}],"buffers":[{"uri":"1950_1.bin","byteLength":344892}],"materials":[{"pbrMetallicRoughness":{"baseColorFactor":[0.006849315,0.006849315,0.006849315,1.0],"metallicFactor":0.0,"roughnessFactor":0.450053632},"emissiveFactor":[0.0,0.0,0.0],"alphaMode":"OPAQUE","name":"lambert91"},{"pbrMetallicRoughness":{"baseColorFactor":[1.0,1.0,1.0,1.0],"baseColorTexture":{"index":0,"texCoord":0},"metallicFactor":0.0,"roughnessFactor":0.450053632},"emissiveFactor":[0.0,0.0,0.0],"alphaMode":"OPAQUE","name":"lambert92"},{"pbrMetallicRoughness":{"baseColorFactor":[0.5,0.5,0.5,1.0],"metallicFactor":0.0,"roughnessFactor":0.450053632},"emissiveFactor":[0.0,0.0,0.0],"alphaMode":"OPAQUE","name":"white_lambert"},{"pbrMetallicRoughness":{"baseColorFactor":[0.0,0.0,0.0,1.0],"metallicFactor":0.0,"roughnessFactor":0.450053632},"emissiveFactor":[0.0,0.0,0.0],"alphaMode":"OPAQUE","name":"black_lambert"},{"pbrMetallicRoughness":{"baseColorFactor":[0.5,0.5,0.5,1.0],"metallicFactor":0.0,"roughnessFactor":0.450053632},"emissiveFactor":[0.0,0.0,0.0],"alphaMode":"OPAQUE","name":"lambert93"},{"pbrMetallicRoughness":{"baseColorFactor":[1.0,1.0,1.0,1.0],"baseColorTexture":{"index":1,"texCoord":0},"metallicFactor":0.0,"roughnessFactor":0.450053632},"emissiveFactor":[0.0,0.0,0.0],"alphaMode":"OPAQUE","name":"lambert1"},{"pbrMetallicRoughness":{"baseColorFactor":[0.130712986,0.130712986,0.130712986,1.0],"metallicFactor":0.0,"roughnessFactor":0.450053632},"emissiveFactor":[0.0,0.0,0.0],"alphaMode":"OPAQUE","name":"Gray_labert"},{"pbrMetallicRoughness":{"baseColorFactor":[0.5,0.0,0.0,1.0],"metallicFactor":0.0,"roughnessFactor":0.2581639},"emissiveFactor":[0.0,0.0,0.0],"alphaMode":"OPAQUE","name":"red_pong"}],"textures":[{"sampler":0,"source":0,"name":"Alan-Turing.jpg"},{"sampler":0,"source":1,"name":"trading_booth_cetner.jpg"}],"images":[{"uri":"Alan-Turing.jpg"},{"uri":"trading_booth_cetner.jpg"}],"samplers":[{"magFilter":9729,"minFilter":9987,"wrapS":10497,"wrapT":10497}]}