{"asset":{"version":"2.0","generator":"babylon.js glTF exporter for Maya 2018 v20190916.7"},"scene":0,"scenes":[{"nodes":[0,1],"extensions":{}}],"nodes":[{"mesh":0,"translation":[0.0,0.0,0.0],"rotation":[0.0,0.0,0.0,1.0],"scale":[1.0,1.0,1.0],"name":"polySurface4748"},{"translation":[0.0,0.0,0.0],"rotation":[0.0,0.0,0.0,1.0],"scale":[1.0,1.0,1.0],"name":"Default light"}],"meshes":[{"primitives":[{"attributes":{"POSITION":1,"TANGENT":2,"NORMAL":3,"TEXCOORD_0":4},"indices":0,"mode":4,"material":0},{"attributes":{"POSITION":6,"TANGENT":7,"NORMAL":8,"TEXCOORD_0":9},"indices":5,"mode":4,"material":1},{"attributes":{"POSITION":11,"TANGENT":12,"NORMAL":13,"TEXCOORD_0":14},"indices":10,"mode":4,"material":2},{"attributes":{"POSITION":16,"TANGENT":17,"NORMAL":18,"TEXCOORD_0":19},"indices":15,"mode":4,"material":3},{"attributes":{"POSITION":21,"TANGENT":22,"NORMAL":23,"TEXCOORD_0":24},"indices":20,"mode":4,"material":4},{"attributes":{"POSITION":26,"TANGENT":27,"NORMAL":28,"TEXCOORD_0":29},"indices":25,"mode":4,"material":5},{"attributes":{"POSITION":31,"TANGENT":32,"NORMAL":33,"TEXCOORD_0":34},"indices":30,"mode":4,"material":6},{"attributes":{"POSITION":36,"TANGENT":37,"NORMAL":38,"TEXCOORD_0":39},"indices":35,"mode":4,"material":7},{"attributes":{"POSITION":41,"TANGENT":42,"NORMAL":43,"TEXCOORD_0":44},"indices":40,"mode":4,"material":8},{"attributes":{"POSITION":46,"TANGENT":47,"NORMAL":48,"TEXCOORD_0":49},"indices":45,"mode":4,"material":9},{"attributes":{"POSITION":51,"TANGENT":52,"NORMAL":53,"TEXCOORD_0":54},"indices":50,"mode":4,"material":10},{"attributes":{"POSITION":56,"TANGENT":57,"NORMAL":58,"TEXCOORD_0":59},"indices":55,"mode":4,"material":11},{"attributes":{"POSITION":61,"TANGENT":62,"NORMAL":63,"TEXCOORD_0":64},"indices":60,"mode":4,"material":12},{"attributes":{"POSITION":66,"TANGENT":67,"NORMAL":68,"TEXCOORD_0":69},"indices":65,"mode":4,"material":13},{"attributes":{"POSITION":71,"TANGENT":72,"NORMAL":73,"TEXCOORD_0":74},"indices":70,"mode":4,"material":14}],"name":"polySurface4748"}],"accessors":[{"bufferView":0,"componentType":5123,"count":624,"type":"SCALAR","name":"accessorIndices"},{"bufferView":1,"componentType":5126,"count":402,"max":[13.6304436,5.75631046,33.3345032],"min":[-1.89295292,-0.372113526,-9.9526825],"type":"VEC3","name":"accessorPositions"},{"bufferView":2,"componentType":5126,"count":402,"type":"VEC4","name":"accessorTangents"},{"bufferView":1,"byteOffset":4824,"componentType":5126,"count":402,"type":"VEC3","name":"accessorNormals"},{"bufferView":3,"componentType":5126,"count":402,"type":"VEC2","name":"accessorUVs"},{"bufferView":0,"byteOffset":1248,"componentType":5123,"count":42,"type":"SCALAR","name":"accessorIndices"},{"bufferView":1,"byteOffset":9648,"componentType":5126,"count":28,"max":[13.6891594,10.3188992,33.3956337],"min":[-2.21608353,-0.3019855,-9.987912],"type":"VEC3","name":"accessorPositions"},{"bufferView":2,"byteOffset":6432,"componentType":5126,"count":28,"type":"VEC4","name":"accessorTangents"},{"bufferView":1,"byteOffset":9984,"componentType":5126,"count":28,"type":"VEC3","name":"accessorNormals"},{"bufferView":3,"byteOffset":3216,"componentType":5126,"count":28,"type":"VEC2","name":"accessorUVs"},{"bufferView":0,"byteOffset":1332,"componentType":5123,"count":18111,"type":"SCALAR","name":"accessorIndices"},{"bufferView":1,"byteOffset":10320,"componentType":5126,"count":6233,"max":[10.2533627,7.89463949,32.55008],"min":[0.6831069,1.78537667,-10.0823727],"type":"VEC3","name":"accessorPositions"},{"bufferView":2,"byteOffset":6880,"componentType":5126,"count":6233,"type":"VEC4","name":"accessorTangents"},{"bufferView":1,"byteOffset":85116,"componentType":5126,"count":6233,"type":"VEC3","name":"accessorNormals"},{"bufferView":3,"byteOffset":3440,"componentType":5126,"count":6233,"type":"VEC2","name":"accessorUVs"},{"bufferView":0,"byteOffset":37556,"componentType":5123,"count":12,"type":"SCALAR","name":"accessorIndices"},{"bufferView":1,"byteOffset":159912,"componentType":5126,"count":8,"max":[13.6942749,10.3146477,33.37719],"min":[-2.23980331,5.740485,-10.0099239],"type":"VEC3","name":"accessorPositions"},{"bufferView":2,"byteOffset":106608,"componentType":5126,"count":8,"type":"VEC4","name":"accessorTangents"},{"bufferView":1,"byteOffset":160008,"componentType":5126,"count":8,"type":"VEC3","name":"accessorNormals"},{"bufferView":3,"byteOffset":53304,"componentType":5126,"count":8,"type":"VEC2","name":"accessorUVs"},{"bufferView":0,"byteOffset":37580,"componentType":5123,"count":72,"type":"SCALAR","name":"accessorIndices"},{"bufferView":1,"byteOffset":160104,"componentType":5126,"count":48,"max":[9.459014,2.83688116,4.038579],"min":[5.959285,1.67035186,3.23376656],"type":"VEC3","name":"accessorPositions"},{"bufferView":2,"byteOffset":106736,"componentType":5126,"count":48,"type":"VEC4","name":"accessorTangents"},{"bufferView":1,"byteOffset":160680,"componentType":5126,"count":48,"type":"VEC3","name":"accessorNormals"},{"bufferView":3,"byteOffset":53368,"componentType":5126,"count":48,"type":"VEC2","name":"accessorUVs"},{"bufferView":0,"byteOffset":37724,"componentType":5123,"count":678,"type":"SCALAR","name":"accessorIndices"},{"bufferView":1,"byteOffset":161256,"componentType":5126,"count":334,"max":[9.105904,3.50794482,3.88011122],"min":[5.987255,1.76577616,3.02128124],"type":"VEC3","name":"accessorPositions"},{"bufferView":2,"byteOffset":107504,"componentType":5126,"count":334,"type":"VEC4","name":"accessorTangents"},{"bufferView":1,"byteOffset":165264,"componentType":5126,"count":334,"type":"VEC3","name":"accessorNormals"},{"bufferView":3,"byteOffset":53752,"componentType":5126,"count":334,"type":"VEC2","name":"accessorUVs"},{"bufferView":0,"byteOffset":39080,"componentType":5123,"count":36,"type":"SCALAR","name":"accessorIndices"},{"bufferView":1,"byteOffset":169272,"componentType":5126,"count":24,"max":[7.67452431,0.5,5.004764],"min":[6.67452431,-0.5,4.004764],"type":"VEC3","name":"accessorPositions"},{"bufferView":2,"byteOffset":112848,"componentType":5126,"count":24,"type":"VEC4","name":"accessorTangents"},{"bufferView":1,"byteOffset":169560,"componentType":5126,"count":24,"type":"VEC3","name":"accessorNormals"},{"bufferView":3,"byteOffset":56424,"componentType":5126,"count":24,"type":"VEC2","name":"accessorUVs"},{"bufferView":0,"byteOffset":39152,"componentType":5123,"count":690,"type":"SCALAR","name":"accessorIndices"},{"bufferView":1,"byteOffset":169848,"componentType":5126,"count":345,"max":[9.105904,3.08425331,5.004764],"min":[6.67452431,-0.5,3.02128124],"type":"VEC3","name":"accessorPositions"},{"bufferView":2,"byteOffset":113232,"componentType":5126,"count":345,"type":"VEC4","name":"accessorTangents"},{"bufferView":1,"byteOffset":173988,"componentType":5126,"count":345,"type":"VEC3","name":"accessorNormals"},{"bufferView":3,"byteOffset":56616,"componentType":5126,"count":345,"type":"VEC2","name":"accessorUVs"},{"bufferView":0,"byteOffset":40532,"componentType":5123,"count":6,"type":"SCALAR","name":"accessorIndices"},{"bufferView":1,"byteOffset":178128,"componentType":5126,"count":4,"max":[13.4023218,0.9528992,33.34946],"min":[-1.94726229,0.952524066,-9.94611549],"type":"VEC3","name":"accessorPositions"},{"bufferView":2,"byteOffset":118752,"componentType":5126,"count":4,"type":"VEC4","name":"accessorTangents"},{"bufferView":1,"byteOffset":178176,"componentType":5126,"count":4,"type":"VEC3","name":"accessorNormals"},{"bufferView":3,"byteOffset":59376,"componentType":5126,"count":4,"type":"VEC2","name":"accessorUVs"},{"bufferView":0,"byteOffset":40544,"componentType":5123,"count":390,"type":"SCALAR","name":"accessorIndices"},{"bufferView":1,"byteOffset":178224,"componentType":5126,"count":220,"max":[10.4304047,3.83475757,32.571022],"min":[7.208221,1.74506426,-3.55971622],"type":"VEC3","name":"accessorPositions"},{"bufferView":2,"byteOffset":118816,"componentType":5126,"count":220,"type":"VEC4","name":"accessorTangents"},{"bufferView":1,"byteOffset":180864,"componentType":5126,"count":220,"type":"VEC3","name":"accessorNormals"},{"bufferView":3,"byteOffset":59408,"componentType":5126,"count":220,"type":"VEC2","name":"accessorUVs"},{"bufferView":0,"byteOffset":41324,"componentType":5123,"count":6,"type":"SCALAR","name":"accessorIndices"},{"bufferView":1,"byteOffset":183504,"componentType":5126,"count":4,"max":[10.1302023,3.60072541,10.6828213],"min":[8.858561,1.97909641,10.6828213],"type":"VEC3","name":"accessorPositions"},{"bufferView":2,"byteOffset":122336,"componentType":5126,"count":4,"type":"VEC4","name":"accessorTangents"},{"bufferView":1,"byteOffset":183552,"componentType":5126,"count":4,"type":"VEC3","name":"accessorNormals"},{"bufferView":3,"byteOffset":61168,"componentType":5126,"count":4,"type":"VEC2","name":"accessorUVs"},{"bufferView":0,"byteOffset":41336,"componentType":5123,"count":12,"type":"SCALAR","name":"accessorIndices"},{"bufferView":1,"byteOffset":183600,"componentType":5126,"count":8,"max":[10.2788267,3.60072541,32.42457],"min":[9.007009,1.976914,25.2547741],"type":"VEC3","name":"accessorPositions"},{"bufferView":2,"byteOffset":122400,"componentType":5126,"count":8,"type":"VEC4","name":"accessorTangents"},{"bufferView":1,"byteOffset":183696,"componentType":5126,"count":8,"type":"VEC3","name":"accessorNormals"},{"bufferView":3,"byteOffset":61200,"componentType":5126,"count":8,"type":"VEC2","name":"accessorUVs"},{"bufferView":0,"byteOffset":41360,"componentType":5123,"count":6,"type":"SCALAR","name":"accessorIndices"},{"bufferView":1,"byteOffset":183792,"componentType":5126,"count":4,"max":[8.631616,3.60072541,18.0597839],"min":[7.35997438,1.97909641,18.0597839],"type":"VEC3","name":"accessorPositions"},{"bufferView":2,"byteOffset":122528,"componentType":5126,"count":4,"type":"VEC4","name":"accessorTangents"},{"bufferView":1,"byteOffset":183840,"componentType":5126,"count":4,"type":"VEC3","name":"accessorNormals"},{"bufferView":3,"byteOffset":61264,"componentType":5126,"count":4,"type":"VEC2","name":"accessorUVs"},{"bufferView":0,"byteOffset":41372,"componentType":5123,"count":24,"type":"SCALAR","name":"accessorIndices"},{"bufferView":1,"byteOffset":183888,"componentType":5126,"count":12,"max":[9.5055275,8.048388,-10.0770054],"min":[0.6849816,2.13294649,-10.0770054],"type":"VEC3","name":"accessorPositions"},{"bufferView":2,"byteOffset":122592,"componentType":5126,"count":12,"type":"VEC4","name":"accessorTangents"},{"bufferView":1,"byteOffset":184032,"componentType":5126,"count":12,"type":"VEC3","name":"accessorNormals"},{"bufferView":3,"byteOffset":61296,"componentType":5126,"count":12,"type":"VEC2","name":"accessorUVs"},{"bufferView":0,"byteOffset":41420,"componentType":5123,"count":6,"type":"SCALAR","name":"accessorIndices"},{"bufferView":1,"byteOffset":184176,"componentType":5126,"count":4,"max":[9.791188,3.60072541,-3.45731544],"min":[8.51954651,1.97909641,-3.45731544],"type":"VEC3","name":"accessorPositions"},{"bufferView":2,"byteOffset":122784,"componentType":5126,"count":4,"type":"VEC4","name":"accessorTangents"},{"bufferView":1,"byteOffset":184224,"componentType":5126,"count":4,"type":"VEC3","name":"accessorNormals"},{"bufferView":3,"byteOffset":61392,"componentType":5126,"count":4,"type":"VEC2","name":"accessorUVs"}],"bufferViews":[{"buffer":0,"byteLength":41432,"name":"bufferViewScalar"},{"buffer":0,"byteOffset":41432,"byteLength":184272,"byteStride":12,"name":"bufferViewFloatVec3"},{"buffer":0,"byteOffset":225704,"byteLength":122848,"byteStride":16,"name":"bufferViewFloatVec4"},{"buffer":0,"byteOffset":348552,"byteLength":61424,"byteStride":8,"name":"bufferViewFloatVec2"}],"buffers":[{"uri":"walls_105.bin","byteLength":409976}],"materials":[{"pbrMetallicRoughness":{"baseColorFactor":[1.0,1.0,1.0,1.0],"baseColorTexture":{"index":0,"texCoord":0},"metallicFactor":0.0,"roughnessFactor":0.450053632},"emissiveFactor":[0.0,0.0,0.0],"alphaMode":"OPAQUE","name":"wall_flower_wall_paper"},{"pbrMetallicRoughness":{"baseColorFactor":[1.0,1.0,1.0,1.0],"baseColorTexture":{"index":1,"texCoord":0},"metallicFactor":0.0,"roughnessFactor":0.450053632},"emissiveFactor":[0.0,0.0,0.0],"alphaMode":"OPAQUE","name":"lambert101"},{"pbrMetallicRoughness":{"baseColorFactor":[0.0,0.0,0.0,1.0],"metallicFactor":0.0,"roughnessFactor":0.450053632},"emissiveFactor":[0.0,0.0,0.0],"alphaMode":"OPAQUE","name":"black_lambert"},{"pbrMetallicRoughness":{"baseColorFactor":[1.0,1.0,1.0,1.0],"baseColorTexture":{"index":2,"texCoord":0},"metallicFactor":0.0,"roughnessFactor":0.450053632},"emissiveFactor":[0.0,0.0,0.0],"alphaMode":"OPAQUE","name":"roof"},{"pbrMetallicRoughness":{"baseColorFactor":[1.0,1.0,1.0,1.0],"baseColorTexture":{"index":3,"texCoord":0},"metallicFactor":0.0,"roughnessFactor":0.450053632},"emissiveFactor":[0.0,0.0,0.0],"alphaMode":"OPAQUE","name":"lambert98"},{"pbrMetallicRoughness":{"baseColorFactor":[0.5,0.5,0.5,1.0],"metallicFactor":0.0,"roughnessFactor":0.450053632},"emissiveFactor":[0.0,0.0,0.0],"alphaMode":"OPAQUE","name":"white_lambert"},{"pbrMetallicRoughness":{"baseColorFactor":[1.0,1.0,1.0,1.0],"baseColorTexture":{"index":4,"texCoord":0},"metallicFactor":0.0,"roughnessFactor":0.450053632},"emissiveFactor":[0.0,0.0,0.0],"alphaMode":"OPAQUE","name":"lambert1"},{"pbrMetallicRoughness":{"baseColorFactor":[0.130712986,0.130712986,0.130712986,1.0],"metallicFactor":0.0,"roughnessFactor":0.450053632},"emissiveFactor":[0.0,0.0,0.0],"alphaMode":"OPAQUE","name":"Gray_labert"},{"pbrMetallicRoughness":{"baseColorFactor":[1.0,1.0,1.0,1.0],"baseColorTexture":{"index":5,"texCoord":0},"metallicFactor":0.0,"roughnessFactor":0.450053632},"emissiveFactor":[0.0,0.0,0.0],"alphaMode":"OPAQUE","name":"outside_floor_texture"},{"pbrMetallicRoughness":{"baseColorFactor":[0.0,0.0,0.0,1.0],"metallicFactor":0.0,"roughnessFactor":0.450053632},"emissiveFactor":[0.0,0.0,0.0],"alphaMode":"OPAQUE","name":"lambert91"},{"pbrMetallicRoughness":{"baseColorFactor":[1.0,1.0,1.0,1.0],"baseColorTexture":{"index":6,"texCoord":0},"metallicFactor":0.0,"roughnessFactor":0.450053632},"emissiveFactor":[0.0,0.0,0.0],"alphaMode":"OPAQUE","name":"Neural_Network_"},{"pbrMetallicRoughness":{"baseColorFactor":[1.0,1.0,1.0,1.0],"baseColorTexture":{"index":7,"texCoord":0},"metallicFactor":0.0,"roughnessFactor":0.450053632},"emissiveFactor":[0.0,0.0,0.0],"alphaMode":"OPAQUE","name":"lambert112"},{"pbrMetallicRoughness":{"baseColorFactor":[1.0,1.0,1.0,1.0],"baseColorTexture":{"index":8,"texCoord":0},"metallicFactor":0.0,"roughnessFactor":0.450053632},"emissiveFactor":[0.0,0.0,0.0],"alphaMode":"OPAQUE","name":"lambert109"},{"pbrMetallicRoughness":{"baseColorFactor":[1.0,1.0,1.0,1.0],"baseColorTexture":{"index":9,"texCoord":0},"metallicFactor":0.0,"roughnessFactor":0.450053632},"emissiveFactor":[0.0,0.0,0.0],"alphaMode":"OPAQUE","name":"pic_white"},{"pbrMetallicRoughness":{"baseColorFactor":[1.0,1.0,1.0,1.0],"baseColorTexture":{"index":10,"texCoord":0},"metallicFactor":0.0,"roughnessFactor":0.450053632},"emissiveFactor":[0.0,0.0,0.0],"alphaMode":"OPAQUE","name":"Z3"}],"textures":[{"sampler":0,"source":0,"name":"wall_paper_flowers.jpg"},{"sampler":0,"source":1,"name":"brick_1.jpg"},{"sampler":0,"source":2,"name":"roof_title_1.jpg"},{"sampler":0,"source":3,"name":"shelf_wood.jpg"},{"sampler":0,"source":4,"name":"trading_booth_cetner.jpg"},{"sampler":0,"source":5,"name":"wooden_floor.jpg"},{"sampler":0,"source":6,"name":"Nerual_network.jpeg"},{"sampler":0,"source":7,"name":"chest_board.jpg"},{"sampler":0,"source":8,"name":"moors_law.png"},{"sampler":0,"source":9,"name":"white_2.png"},{"sampler":0,"source":10,"name":"z3.jpg"}],"images":[{"uri":"wall_paper_flowers.jpg"},{"uri":"brick_1.jpg"},{"uri":"roof_title_1.jpg"},{"uri":"shelf_wood.jpg"},{"uri":"trading_booth_cetner.jpg"},{"uri":"wooden_floor.jpg"},{"uri":"Nerual_network.jpeg"},{"uri":"chest_board.jpg"},{"uri":"moors_law.png"},{"uri":"white_2.png"},{"uri":"z3.jpg"}],"samplers":[{"magFilter":9729,"minFilter":9987,"wrapS":10497,"wrapT":10497}]}