{"asset":{"version":"2.0","generator":"babylon.js glTF exporter for Maya 2018 v20190916.7"},"scene":0,"scenes":[{"nodes":[0,1],"extensions":{}}],"nodes":[{"mesh":0,"translation":[-0.7148708,-0.890986264,-0.216586679],"rotation":[0.0,0.0,0.0,1.0],"scale":[0.727961659,0.727961659,0.727961659],"name":"pCube286"},{"translation":[0.0,0.0,0.0],"rotation":[0.0,0.0,0.0,1.0],"scale":[1.0,1.0,1.0],"name":"Default light"}],"meshes":[{"primitives":[{"attributes":{"POSITION":1,"TANGENT":2,"NORMAL":3,"TEXCOORD_0":4},"indices":0,"mode":4,"material":0},{"attributes":{"POSITION":6,"TANGENT":7,"NORMAL":8,"TEXCOORD_0":9},"indices":5,"mode":4,"material":1},{"attributes":{"POSITION":11,"TANGENT":12,"NORMAL":13,"TEXCOORD_0":14},"indices":10,"mode":4,"material":2},{"attributes":{"POSITION":16,"TANGENT":17,"NORMAL":18,"TEXCOORD_0":19},"indices":15,"mode":4,"material":3},{"attributes":{"POSITION":21,"TANGENT":22,"NORMAL":23,"TEXCOORD_0":24},"indices":20,"mode":4,"material":4},{"attributes":{"POSITION":26,"TANGENT":27,"NORMAL":28,"TEXCOORD_0":29},"indices":25,"mode":4,"material":5},{"attributes":{"POSITION":31,"TANGENT":32,"NORMAL":33,"TEXCOORD_0":34},"indices":30,"mode":4,"material":6}],"name":"pCube286"}],"accessors":[{"bufferView":0,"componentType":5123,"count":888,"type":"SCALAR","name":"accessorIndices"},{"bufferView":1,"componentType":5126,"count":325,"max":[-6.04430676,6.01214361,-4.30032253],"min":[-7.25422,5.665156,-5.510235],"type":"VEC3","name":"accessorPositions"},{"bufferView":2,"componentType":5126,"count":325,"type":"VEC4","name":"accessorTangents"},{"bufferView":1,"byteOffset":3900,"componentType":5126,"count":325,"type":"VEC3","name":"accessorNormals"},{"bufferView":3,"componentType":5126,"count":325,"type":"VEC2","name":"accessorUVs"},{"bufferView":0,"byteOffset":1776,"componentType":5123,"count":17244,"type":"SCALAR","name":"accessorIndices"},{"bufferView":1,"byteOffset":7800,"componentType":5126,"count":5585,"max":[5.11498737,8.052555,1.48396194],"min":[-8.891191,1.422157,-5.8165946],"type":"VEC3","name":"accessorPositions"},{"bufferView":2,"byteOffset":5200,"componentType":5126,"count":5585,"type":"VEC4","name":"accessorTangents"},{"bufferView":1,"byteOffset":74820,"componentType":5126,"count":5585,"type":"VEC3","name":"accessorNormals"},{"bufferView":3,"byteOffset":2600,"componentType":5126,"count":5585,"type":"VEC2","name":"accessorUVs"},{"bufferView":0,"byteOffset":36264,"componentType":5123,"count":108,"type":"SCALAR","name":"accessorIndices"},{"bufferView":1,"byteOffset":141840,"componentType":5126,"count":72,"max":[-2.84266424,7.192112,-4.529002],"min":[-7.65023756,4.003347,-6.181057],"type":"VEC3","name":"accessorPositions"},{"bufferView":2,"byteOffset":94560,"componentType":5126,"count":72,"type":"VEC4","name":"accessorTangents"},{"bufferView":1,"byteOffset":142704,"componentType":5126,"count":72,"type":"VEC3","name":"accessorNormals"},{"bufferView":3,"byteOffset":47280,"componentType":5126,"count":72,"type":"VEC2","name":"accessorUVs"},{"bufferView":0,"byteOffset":36480,"componentType":5123,"count":552,"type":"SCALAR","name":"accessorIndices"},{"bufferView":1,"byteOffset":143568,"componentType":5126,"count":304,"max":[5.94188452,9.501642,4.774806],"min":[-11.197547,0.809109569,-6.36713076],"type":"VEC3","name":"accessorPositions"},{"bufferView":2,"byteOffset":95712,"componentType":5126,"count":304,"type":"VEC4","name":"accessorTangents"},{"bufferView":1,"byteOffset":147216,"componentType":5126,"count":304,"type":"VEC3","name":"accessorNormals"},{"bufferView":3,"byteOffset":47856,"componentType":5126,"count":304,"type":"VEC2","name":"accessorUVs"},{"bufferView":0,"byteOffset":37584,"componentType":5123,"count":78,"type":"SCALAR","name":"accessorIndices"},{"bufferView":1,"byteOffset":150864,"componentType":5126,"count":44,"max":[0.581809163,6.96174526,-5.53660536],"min":[-1.58197081,4.091136,-5.87516832],"type":"VEC3","name":"accessorPositions"},{"bufferView":2,"byteOffset":100576,"componentType":5126,"count":44,"type":"VEC4","name":"accessorTangents"},{"bufferView":1,"byteOffset":151392,"componentType":5126,"count":44,"type":"VEC3","name":"accessorNormals"},{"bufferView":3,"byteOffset":50288,"componentType":5126,"count":44,"type":"VEC2","name":"accessorUVs"},{"bufferView":0,"byteOffset":37740,"componentType":5123,"count":6,"type":"SCALAR","name":"accessorIndices"},{"bufferView":1,"byteOffset":151920,"componentType":5126,"count":4,"max":[0.373345375,6.64025545,-5.67727327],"min":[-1.373507,4.412626,-5.67727327],"type":"VEC3","name":"accessorPositions"},{"bufferView":2,"byteOffset":101280,"componentType":5126,"count":4,"type":"VEC4","name":"accessorTangents"},{"bufferView":1,"byteOffset":151968,"componentType":5126,"count":4,"type":"VEC3","name":"accessorNormals"},{"bufferView":3,"byteOffset":50640,"componentType":5126,"count":4,"type":"VEC2","name":"accessorUVs"},{"bufferView":0,"byteOffset":37752,"componentType":5123,"count":78,"type":"SCALAR","name":"accessorIndices"},{"bufferView":1,"byteOffset":152016,"componentType":5126,"count":36,"max":[2.30186915,4.07412148,-4.76995945],"min":[1.6375221,3.78342366,-5.434306],"type":"VEC3","name":"accessorPositions"},{"bufferView":2,"byteOffset":101344,"componentType":5126,"count":36,"type":"VEC4","name":"accessorTangents"},{"bufferView":1,"byteOffset":152448,"componentType":5126,"count":36,"type":"VEC3","name":"accessorNormals"},{"bufferView":3,"byteOffset":50672,"componentType":5126,"count":36,"type":"VEC2","name":"accessorUVs"}],"bufferViews":[{"buffer":0,"byteLength":37908,"name":"bufferViewScalar"},{"buffer":0,"byteOffset":37908,"byteLength":152880,"byteStride":12,"name":"bufferViewFloatVec3"},{"buffer":0,"byteOffset":190788,"byteLength":101920,"byteStride":16,"name":"bufferViewFloatVec4"},{"buffer":0,"byteOffset":292708,"byteLength":50960,"byteStride":8,"name":"bufferViewFloatVec2"}],"buffers":[{"uri":"1950_4.bin","byteLength":343668}],"materials":[{"pbrMetallicRoughness":{"baseColorFactor":[0.130712986,0.130712986,0.130712986,1.0],"metallicFactor":0.0,"roughnessFactor":0.450053632},"emissiveFactor":[0.0,0.0,0.0],"alphaMode":"OPAQUE","name":"Gray_labert"},{"pbrMetallicRoughness":{"baseColorFactor":[0.0,0.0,0.0,1.0],"metallicFactor":0.0,"roughnessFactor":0.450053632},"emissiveFactor":[0.0,0.0,0.0],"alphaMode":"OPAQUE","name":"black_lambert"},{"pbrMetallicRoughness":{"baseColorFactor":[0.5,0.5,0.5,1.0],"metallicFactor":0.0,"roughnessFactor":0.450053632},"emissiveFactor":[0.0,0.0,0.0],"alphaMode":"OPAQUE","name":"lambert93"},{"pbrMetallicRoughness":{"baseColorFactor":[0.5,0.5,0.5,1.0],"metallicFactor":0.0,"roughnessFactor":0.450053632},"emissiveFactor":[0.0,0.0,0.0],"alphaMode":"OPAQUE","name":"white_lambert"},{"pbrMetallicRoughness":{"baseColorFactor":[0.006849315,0.006849315,0.006849315,1.0],"metallicFactor":0.0,"roughnessFactor":0.450053632},"emissiveFactor":[0.0,0.0,0.0],"alphaMode":"OPAQUE","name":"lambert91"},{"pbrMetallicRoughness":{"baseColorFactor":[1.0,1.0,1.0,1.0],"baseColorTexture":{"index":0,"texCoord":0},"metallicFactor":0.0,"roughnessFactor":0.450053632},"emissiveFactor":[0.0,0.0,0.0],"alphaMode":"OPAQUE","name":"lambert92"},{"pbrMetallicRoughness":{"baseColorFactor":[0.5,0.0,0.0,1.0],"metallicFactor":0.0,"roughnessFactor":0.2581639},"emissiveFactor":[0.0,0.0,0.0],"alphaMode":"OPAQUE","name":"red_pong"}],"textures":[{"sampler":0,"source":0,"name":"Alan-Turing.jpg"}],"images":[{"uri":"Alan-Turing.jpg"}],"samplers":[{"magFilter":9729,"minFilter":9987,"wrapS":10497,"wrapT":10497}]}