{"asset":{"version":"2.0","generator":"babylon.js glTF exporter for Maya 2018 v20190916.7"},"scene":0,"scenes":[{"nodes":[0,1],"extensions":{}}],"nodes":[{"mesh":0,"translation":[15.9086943,0.0,-0.07561919],"rotation":[0.0,0.0,0.0,1.0],"scale":[1.0,1.0,1.0],"name":"typeMesh50"},{"translation":[0.0,0.0,0.0],"rotation":[0.0,0.0,0.0,1.0],"scale":[1.0,1.0,1.0],"name":"Default light"}],"meshes":[{"primitives":[{"attributes":{"POSITION":1,"TANGENT":2,"NORMAL":3,"TEXCOORD_0":4},"indices":0,"mode":4,"material":0},{"attributes":{"POSITION":6,"TANGENT":7,"NORMAL":8,"TEXCOORD_0":9},"indices":5,"mode":4,"material":1},{"attributes":{"POSITION":11,"TANGENT":12,"NORMAL":13,"TEXCOORD_0":14},"indices":10,"mode":4,"material":2}],"name":"typeMesh50"}],"accessors":[{"bufferView":0,"componentType":5123,"count":4485,"type":"SCALAR","name":"accessorIndices"},{"bufferView":1,"componentType":5126,"count":1579,"max":[-7.592675,4.231567,11.1083031],"min":[-13.8999128,2.499679,11.0945387],"type":"VEC3","name":"accessorPositions"},{"bufferView":2,"componentType":5126,"count":1579,"type":"VEC4","name":"accessorTangents"},{"bufferView":1,"byteOffset":18948,"componentType":5126,"count":1579,"type":"VEC3","name":"accessorNormals"},{"bufferView":3,"componentType":5126,"count":1579,"type":"VEC2","name":"accessorUVs"},{"bufferView":0,"byteOffset":8972,"componentType":5123,"count":78,"type":"SCALAR","name":"accessorIndices"},{"bufferView":1,"byteOffset":37896,"componentType":5126,"count":44,"max":[-7.53638649,3.83475757,11.1876822],"min":[-9.111536,1.74506426,10.94122],"type":"VEC3","name":"accessorPositions"},{"bufferView":2,"byteOffset":25264,"componentType":5126,"count":44,"type":"VEC4","name":"accessorTangents"},{"bufferView":1,"byteOffset":38424,"componentType":5126,"count":44,"type":"VEC3","name":"accessorNormals"},{"bufferView":3,"byteOffset":12632,"componentType":5126,"count":44,"type":"VEC2","name":"accessorUVs"},{"bufferView":0,"byteOffset":9128,"componentType":5123,"count":6,"type":"SCALAR","name":"accessorIndices"},{"bufferView":1,"byteOffset":38952,"componentType":5126,"count":4,"max":[-7.68814039,3.60072541,11.043622],"min":[-8.959782,1.97909641,11.043622],"type":"VEC3","name":"accessorPositions"},{"bufferView":2,"byteOffset":25968,"componentType":5126,"count":4,"type":"VEC4","name":"accessorTangents"},{"bufferView":1,"byteOffset":39000,"componentType":5126,"count":4,"type":"VEC3","name":"accessorNormals"},{"bufferView":3,"byteOffset":12984,"componentType":5126,"count":4,"type":"VEC2","name":"accessorUVs"},{"bufferView":4,"componentType":5126,"count":2,"max":[0.0333333351],"min":[0.0],"type":"SCALAR","name":"accessorAnimationInput"},{"bufferView":5,"componentType":5126,"count":2,"type":"VEC3","name":"accessorAnimationPositions"}],"bufferViews":[{"buffer":0,"byteLength":9140,"name":"bufferViewScalar"},{"buffer":0,"byteOffset":9140,"byteLength":39048,"byteStride":12,"name":"bufferViewFloatVec3"},{"buffer":0,"byteOffset":48188,"byteLength":26032,"byteStride":16,"name":"bufferViewFloatVec4"},{"buffer":0,"byteOffset":74220,"byteLength":13016,"byteStride":8,"name":"bufferViewFloatVec2"},{"buffer":0,"byteOffset":87236,"byteLength":8,"name":"bufferViewAnimationFloatScalar"},{"buffer":0,"byteOffset":87244,"byteLength":24,"name":"bufferViewAnimationFloatVec3"}],"buffers":[{"uri":"1965_6.bin","byteLength":87268}],"materials":[{"pbrMetallicRoughness":{"baseColorFactor":[0.0,0.0,0.0,1.0],"metallicFactor":0.0,"roughnessFactor":0.450053632},"emissiveFactor":[0.0,0.0,0.0],"alphaMode":"OPAQUE","name":"black_lambert"},{"pbrMetallicRoughness":{"baseColorFactor":[0.0,0.0,0.0,1.0],"metallicFactor":0.0,"roughnessFactor":0.450053632},"emissiveFactor":[0.0,0.0,0.0],"alphaMode":"OPAQUE","name":"lambert91"},{"pbrMetallicRoughness":{"baseColorFactor":[1.0,1.0,1.0,1.0],"baseColorTexture":{"index":0,"texCoord":0},"metallicFactor":0.0,"roughnessFactor":0.450053632},"emissiveFactor":[0.0,0.0,0.0],"alphaMode":"OPAQUE","name":"lambert108"}],"textures":[{"sampler":0,"source":0,"name":"marvin_minsky.jpg"}],"images":[{"uri":"marvin_minsky.jpg"}],"samplers":[{"magFilter":9729,"minFilter":9987,"wrapS":10497,"wrapT":10497}],"animations":[{"channels":[{"sampler":0,"target":{"node":0,"path":"translation"}}],"samplers":[{"input":15,"interpolation":"LINEAR","output":16}],"name":"back"}]}