{"asset":{"version":"2.0","generator":"babylon.js glTF exporter for Maya 2018 v20190916.7"},"scene":0,"scenes":[{"nodes":[0,1],"extensions":{}}],"nodes":[{"mesh":0,"translation":[0.0,0.0,0.0],"rotation":[0.0,0.0,0.0,1.0],"scale":[1.0,1.0,1.0],"name":"typeMesh49"},{"translation":[0.0,0.0,0.0],"rotation":[0.0,0.0,0.0,1.0],"scale":[1.0,1.0,1.0],"name":"Default light"}],"meshes":[{"primitives":[{"attributes":{"POSITION":1,"TANGENT":2,"NORMAL":3,"TEXCOORD_0":4},"indices":0,"mode":4,"material":0},{"attributes":{"POSITION":6,"TANGENT":7,"NORMAL":8,"TEXCOORD_0":9},"indices":5,"mode":4,"material":1},{"attributes":{"POSITION":11,"TANGENT":12,"NORMAL":13,"TEXCOORD_0":14},"indices":10,"mode":4,"material":2},{"attributes":{"POSITION":16,"TANGENT":17,"NORMAL":18,"TEXCOORD_0":19},"indices":15,"mode":4,"material":3},{"attributes":{"POSITION":21,"TANGENT":22,"NORMAL":23,"TEXCOORD_0":24},"indices":20,"mode":4,"material":4},{"attributes":{"POSITION":26,"TANGENT":27,"NORMAL":28,"TEXCOORD_0":29},"indices":25,"mode":4,"material":5},{"attributes":{"POSITION":31,"TANGENT":32,"NORMAL":33,"TEXCOORD_0":34},"indices":30,"mode":4,"material":6},{"attributes":{"POSITION":36,"TANGENT":37,"NORMAL":38,"TEXCOORD_0":39},"indices":35,"mode":4,"material":7},{"attributes":{"POSITION":41,"TANGENT":42,"NORMAL":43,"TEXCOORD_0":44},"indices":40,"mode":4,"material":8},{"attributes":{"POSITION":46,"TANGENT":47,"NORMAL":48,"TEXCOORD_0":49},"indices":45,"mode":4,"material":9},{"attributes":{"POSITION":51,"TANGENT":52,"NORMAL":53,"TEXCOORD_0":54},"indices":50,"mode":4,"material":10},{"attributes":{"POSITION":56,"TANGENT":57,"NORMAL":58,"TEXCOORD_0":59},"indices":55,"mode":4,"material":11},{"attributes":{"POSITION":61,"TANGENT":62,"NORMAL":63,"TEXCOORD_0":64},"indices":60,"mode":4,"material":12},{"attributes":{"POSITION":66,"TANGENT":67,"NORMAL":68,"TEXCOORD_0":69},"indices":65,"mode":4,"material":13},{"attributes":{"POSITION":71,"TANGENT":72,"NORMAL":73,"TEXCOORD_0":74},"indices":70,"mode":4,"material":14},{"attributes":{"POSITION":76,"TANGENT":77,"NORMAL":78,"TEXCOORD_0":79},"indices":75,"mode":4,"material":15},{"attributes":{"POSITION":81,"TANGENT":82,"NORMAL":83,"TEXCOORD_0":84},"indices":80,"mode":4,"material":16},{"attributes":{"POSITION":86,"TANGENT":87,"NORMAL":88,"TEXCOORD_0":89},"indices":85,"mode":4,"material":17},{"attributes":{"POSITION":91,"TANGENT":92,"NORMAL":93,"TEXCOORD_0":94},"indices":90,"mode":4,"material":18},{"attributes":{"POSITION":96,"TANGENT":97,"NORMAL":98,"TEXCOORD_0":99},"indices":95,"mode":4,"material":19}],"name":"typeMesh49"}],"accessors":[{"bufferView":0,"componentType":5123,"count":55809,"type":"SCALAR","name":"accessorIndices"},{"bufferView":1,"componentType":5126,"count":19195,"max":[10.2533627,7.89463949,32.55008],"min":[0.2086618,1.78537667,-10.0823727],"type":"VEC3","name":"accessorPositions"},{"bufferView":2,"componentType":5126,"count":19195,"type":"VEC4","name":"accessorTangents"},{"bufferView":1,"byteOffset":230340,"componentType":5126,"count":19195,"type":"VEC3","name":"accessorNormals"},{"bufferView":3,"componentType":5126,"count":19195,"type":"VEC2","name":"accessorUVs"},{"bufferView":0,"byteOffset":111620,"componentType":5123,"count":702,"type":"SCALAR","name":"accessorIndices"},{"bufferView":1,"byteOffset":460680,"componentType":5126,"count":396,"max":[10.4304047,3.83475757,32.58443],"min":[4.30380726,1.74506426,-3.56491256],"type":"VEC3","name":"accessorPositions"},{"bufferView":2,"byteOffset":307120,"componentType":5126,"count":396,"type":"VEC4","name":"accessorTangents"},{"bufferView":1,"byteOffset":465432,"componentType":5126,"count":396,"type":"VEC3","name":"accessorNormals"},{"bufferView":3,"byteOffset":153560,"componentType":5126,"count":396,"type":"VEC2","name":"accessorUVs"},{"bufferView":0,"byteOffset":113024,"componentType":5123,"count":6,"type":"SCALAR","name":"accessorIndices"},{"bufferView":1,"byteOffset":470184,"componentType":5126,"count":4,"max":[7.374237,3.60072541,25.30897],"min":[6.10259533,1.97909641,25.30897],"type":"VEC3","name":"accessorPositions"},{"bufferView":2,"byteOffset":313456,"componentType":5126,"count":4,"type":"VEC4","name":"accessorTangents"},{"bufferView":1,"byteOffset":470232,"componentType":5126,"count":4,"type":"VEC3","name":"accessorNormals"},{"bufferView":3,"byteOffset":156728,"componentType":5126,"count":4,"type":"VEC2","name":"accessorUVs"},{"bufferView":0,"byteOffset":113036,"componentType":5123,"count":6,"type":"SCALAR","name":"accessorIndices"},{"bufferView":1,"byteOffset":470280,"componentType":5126,"count":4,"max":[7.118805,3.60072541,-3.46251178],"min":[5.847163,1.97909641,-3.46251178],"type":"VEC3","name":"accessorPositions"},{"bufferView":2,"byteOffset":313520,"componentType":5126,"count":4,"type":"VEC4","name":"accessorTangents"},{"bufferView":1,"byteOffset":470328,"componentType":5126,"count":4,"type":"VEC3","name":"accessorNormals"},{"bufferView":3,"byteOffset":156760,"componentType":5126,"count":4,"type":"VEC2","name":"accessorUVs"},{"bufferView":0,"byteOffset":113048,"componentType":5123,"count":6,"type":"SCALAR","name":"accessorIndices"},{"bufferView":1,"byteOffset":470376,"componentType":5126,"count":4,"max":[5.72720242,3.60072541,18.0919876],"min":[4.45556068,1.97909641,18.0919876],"type":"VEC3","name":"accessorPositions"},{"bufferView":2,"byteOffset":313584,"componentType":5126,"count":4,"type":"VEC4","name":"accessorTangents"},{"bufferView":1,"byteOffset":470424,"componentType":5126,"count":4,"type":"VEC3","name":"accessorNormals"},{"bufferView":3,"byteOffset":156792,"componentType":5126,"count":4,"type":"VEC2","name":"accessorUVs"},{"bufferView":0,"byteOffset":113060,"componentType":5123,"count":6,"type":"SCALAR","name":"accessorIndices"},{"bufferView":1,"byteOffset":470472,"componentType":5126,"count":4,"max":[7.374237,3.60072541,32.4403725],"min":[6.10259533,1.97909641,32.4403725],"type":"VEC3","name":"accessorPositions"},{"bufferView":2,"byteOffset":313648,"componentType":5126,"count":4,"type":"VEC4","name":"accessorTangents"},{"bufferView":1,"byteOffset":470520,"componentType":5126,"count":4,"type":"VEC3","name":"accessorNormals"},{"bufferView":3,"byteOffset":156824,"componentType":5126,"count":4,"type":"VEC2","name":"accessorUVs"},{"bufferView":0,"byteOffset":113072,"componentType":5123,"count":6,"type":"SCALAR","name":"accessorIndices"},{"bufferView":1,"byteOffset":470568,"componentType":5126,"count":4,"max":[13.6640778,5.720069,33.34946],"min":[-2.287716,5.6680584,-9.990415],"type":"VEC3","name":"accessorPositions"},{"bufferView":2,"byteOffset":313712,"componentType":5126,"count":4,"type":"VEC4","name":"accessorTangents"},{"bufferView":1,"byteOffset":470616,"componentType":5126,"count":4,"type":"VEC3","name":"accessorNormals"},{"bufferView":3,"byteOffset":156856,"componentType":5126,"count":4,"type":"VEC2","name":"accessorUVs"},{"bufferView":0,"byteOffset":113084,"componentType":5123,"count":624,"type":"SCALAR","name":"accessorIndices"},{"bufferView":1,"byteOffset":470664,"componentType":5126,"count":402,"max":[13.6304436,5.75631046,33.3345032],"min":[-1.89295292,-0.372113526,-9.9526825],"type":"VEC3","name":"accessorPositions"},{"bufferView":2,"byteOffset":313776,"componentType":5126,"count":402,"type":"VEC4","name":"accessorTangents"},{"bufferView":1,"byteOffset":475488,"componentType":5126,"count":402,"type":"VEC3","name":"accessorNormals"},{"bufferView":3,"byteOffset":156888,"componentType":5126,"count":402,"type":"VEC2","name":"accessorUVs"},{"bufferView":0,"byteOffset":114332,"componentType":5123,"count":42,"type":"SCALAR","name":"accessorIndices"},{"bufferView":1,"byteOffset":480312,"componentType":5126,"count":28,"max":[13.6891594,10.3188992,33.3956337],"min":[-2.21608353,-0.3019855,-9.987912],"type":"VEC3","name":"accessorPositions"},{"bufferView":2,"byteOffset":320208,"componentType":5126,"count":28,"type":"VEC4","name":"accessorTangents"},{"bufferView":1,"byteOffset":480648,"componentType":5126,"count":28,"type":"VEC3","name":"accessorNormals"},{"bufferView":3,"byteOffset":160104,"componentType":5126,"count":28,"type":"VEC2","name":"accessorUVs"},{"bufferView":0,"byteOffset":114416,"componentType":5123,"count":12,"type":"SCALAR","name":"accessorIndices"},{"bufferView":1,"byteOffset":480984,"componentType":5126,"count":8,"max":[13.6942749,10.3146477,33.37719],"min":[-2.23980331,5.740485,-10.0099239],"type":"VEC3","name":"accessorPositions"},{"bufferView":2,"byteOffset":320656,"componentType":5126,"count":8,"type":"VEC4","name":"accessorTangents"},{"bufferView":1,"byteOffset":481080,"componentType":5126,"count":8,"type":"VEC3","name":"accessorNormals"},{"bufferView":3,"byteOffset":160328,"componentType":5126,"count":8,"type":"VEC2","name":"accessorUVs"},{"bufferView":0,"byteOffset":114440,"componentType":5123,"count":72,"type":"SCALAR","name":"accessorIndices"},{"bufferView":1,"byteOffset":481176,"componentType":5126,"count":48,"max":[9.459014,2.83688116,4.038579],"min":[5.959285,1.67035186,3.23376656],"type":"VEC3","name":"accessorPositions"},{"bufferView":2,"byteOffset":320784,"componentType":5126,"count":48,"type":"VEC4","name":"accessorTangents"},{"bufferView":1,"byteOffset":481752,"componentType":5126,"count":48,"type":"VEC3","name":"accessorNormals"},{"bufferView":3,"byteOffset":160392,"componentType":5126,"count":48,"type":"VEC2","name":"accessorUVs"},{"bufferView":0,"byteOffset":114584,"componentType":5123,"count":678,"type":"SCALAR","name":"accessorIndices"},{"bufferView":1,"byteOffset":482328,"componentType":5126,"count":334,"max":[9.105904,3.50794482,3.88011122],"min":[5.987255,1.76577616,3.02128124],"type":"VEC3","name":"accessorPositions"},{"bufferView":2,"byteOffset":321552,"componentType":5126,"count":334,"type":"VEC4","name":"accessorTangents"},{"bufferView":1,"byteOffset":486336,"componentType":5126,"count":334,"type":"VEC3","name":"accessorNormals"},{"bufferView":3,"byteOffset":160776,"componentType":5126,"count":334,"type":"VEC2","name":"accessorUVs"},{"bufferView":0,"byteOffset":115940,"componentType":5123,"count":36,"type":"SCALAR","name":"accessorIndices"},{"bufferView":1,"byteOffset":490344,"componentType":5126,"count":24,"max":[7.67452431,0.5,5.004764],"min":[6.67452431,-0.5,4.004764],"type":"VEC3","name":"accessorPositions"},{"bufferView":2,"byteOffset":326896,"componentType":5126,"count":24,"type":"VEC4","name":"accessorTangents"},{"bufferView":1,"byteOffset":490632,"componentType":5126,"count":24,"type":"VEC3","name":"accessorNormals"},{"bufferView":3,"byteOffset":163448,"componentType":5126,"count":24,"type":"VEC2","name":"accessorUVs"},{"bufferView":0,"byteOffset":116012,"componentType":5123,"count":690,"type":"SCALAR","name":"accessorIndices"},{"bufferView":1,"byteOffset":490920,"componentType":5126,"count":345,"max":[9.105904,3.08425331,5.004764],"min":[6.67452431,-0.5,3.02128124],"type":"VEC3","name":"accessorPositions"},{"bufferView":2,"byteOffset":327280,"componentType":5126,"count":345,"type":"VEC4","name":"accessorTangents"},{"bufferView":1,"byteOffset":495060,"componentType":5126,"count":345,"type":"VEC3","name":"accessorNormals"},{"bufferView":3,"byteOffset":163640,"componentType":5126,"count":345,"type":"VEC2","name":"accessorUVs"},{"bufferView":0,"byteOffset":117392,"componentType":5123,"count":6,"type":"SCALAR","name":"accessorIndices"},{"bufferView":1,"byteOffset":499200,"componentType":5126,"count":4,"max":[13.4023218,0.9528992,33.34946],"min":[-1.94726229,0.952524066,-9.94611549],"type":"VEC3","name":"accessorPositions"},{"bufferView":2,"byteOffset":332800,"componentType":5126,"count":4,"type":"VEC4","name":"accessorTangents"},{"bufferView":1,"byteOffset":499248,"componentType":5126,"count":4,"type":"VEC3","name":"accessorNormals"},{"bufferView":3,"byteOffset":166400,"componentType":5126,"count":4,"type":"VEC2","name":"accessorUVs"},{"bufferView":0,"byteOffset":117404,"componentType":5123,"count":6,"type":"SCALAR","name":"accessorIndices"},{"bufferView":1,"byteOffset":499296,"componentType":5126,"count":4,"max":[10.1302023,3.60072541,10.6828213],"min":[8.858561,1.97909641,10.6828213],"type":"VEC3","name":"accessorPositions"},{"bufferView":2,"byteOffset":332864,"componentType":5126,"count":4,"type":"VEC4","name":"accessorTangents"},{"bufferView":1,"byteOffset":499344,"componentType":5126,"count":4,"type":"VEC3","name":"accessorNormals"},{"bufferView":3,"byteOffset":166432,"componentType":5126,"count":4,"type":"VEC2","name":"accessorUVs"},{"bufferView":0,"byteOffset":117416,"componentType":5123,"count":12,"type":"SCALAR","name":"accessorIndices"},{"bufferView":1,"byteOffset":499392,"componentType":5126,"count":8,"max":[10.2788267,3.60072541,32.42457],"min":[9.007009,1.976914,25.2547741],"type":"VEC3","name":"accessorPositions"},{"bufferView":2,"byteOffset":332928,"componentType":5126,"count":8,"type":"VEC4","name":"accessorTangents"},{"bufferView":1,"byteOffset":499488,"componentType":5126,"count":8,"type":"VEC3","name":"accessorNormals"},{"bufferView":3,"byteOffset":166464,"componentType":5126,"count":8,"type":"VEC2","name":"accessorUVs"},{"bufferView":0,"byteOffset":117440,"componentType":5123,"count":6,"type":"SCALAR","name":"accessorIndices"},{"bufferView":1,"byteOffset":499584,"componentType":5126,"count":4,"max":[8.631616,3.60072541,18.0597839],"min":[7.35997438,1.97909641,18.0597839],"type":"VEC3","name":"accessorPositions"},{"bufferView":2,"byteOffset":333056,"componentType":5126,"count":4,"type":"VEC4","name":"accessorTangents"},{"bufferView":1,"byteOffset":499632,"componentType":5126,"count":4,"type":"VEC3","name":"accessorNormals"},{"bufferView":3,"byteOffset":166528,"componentType":5126,"count":4,"type":"VEC2","name":"accessorUVs"},{"bufferView":0,"byteOffset":117452,"componentType":5123,"count":24,"type":"SCALAR","name":"accessorIndices"},{"bufferView":1,"byteOffset":499680,"componentType":5126,"count":12,"max":[9.5055275,8.048388,-10.0770054],"min":[0.6849816,2.13294649,-10.0770054],"type":"VEC3","name":"accessorPositions"},{"bufferView":2,"byteOffset":333120,"componentType":5126,"count":12,"type":"VEC4","name":"accessorTangents"},{"bufferView":1,"byteOffset":499824,"componentType":5126,"count":12,"type":"VEC3","name":"accessorNormals"},{"bufferView":3,"byteOffset":166560,"componentType":5126,"count":12,"type":"VEC2","name":"accessorUVs"},{"bufferView":0,"byteOffset":117500,"componentType":5123,"count":6,"type":"SCALAR","name":"accessorIndices"},{"bufferView":1,"byteOffset":499968,"componentType":5126,"count":4,"max":[9.791188,3.60072541,-3.45731544],"min":[8.51954651,1.97909641,-3.45731544],"type":"VEC3","name":"accessorPositions"},{"bufferView":2,"byteOffset":333312,"componentType":5126,"count":4,"type":"VEC4","name":"accessorTangents"},{"bufferView":1,"byteOffset":500016,"componentType":5126,"count":4,"type":"VEC3","name":"accessorNormals"},{"bufferView":3,"byteOffset":166656,"componentType":5126,"count":4,"type":"VEC2","name":"accessorUVs"}],"bufferViews":[{"buffer":0,"byteLength":117512,"name":"bufferViewScalar"},{"buffer":0,"byteOffset":117512,"byteLength":500064,"byteStride":12,"name":"bufferViewFloatVec3"},{"buffer":0,"byteOffset":617576,"byteLength":333376,"byteStride":16,"name":"bufferViewFloatVec4"},{"buffer":0,"byteOffset":950952,"byteLength":166688,"byteStride":8,"name":"bufferViewFloatVec2"}],"buffers":[{"uri":"ceiling_white_1.bin","byteLength":1117640}],"materials":[{"pbrMetallicRoughness":{"baseColorFactor":[0.0,0.0,0.0,1.0],"metallicFactor":0.0,"roughnessFactor":0.450053632},"emissiveFactor":[0.0,0.0,0.0],"alphaMode":"OPAQUE","name":"black_lambert"},{"pbrMetallicRoughness":{"baseColorFactor":[0.0,0.0,0.0,1.0],"metallicFactor":0.0,"roughnessFactor":0.450053632},"emissiveFactor":[0.0,0.0,0.0],"alphaMode":"OPAQUE","name":"lambert91"},{"pbrMetallicRoughness":{"baseColorFactor":[1.0,1.0,1.0,1.0],"baseColorTexture":{"index":0,"texCoord":0},"metallicFactor":0.0,"roughnessFactor":0.450053632},"emissiveFactor":[0.0,0.0,0.0],"alphaMode":"OPAQUE","name":"kas_face"},{"pbrMetallicRoughness":{"baseColorFactor":[1.0,1.0,1.0,1.0],"baseColorTexture":{"index":1,"texCoord":0},"metallicFactor":0.0,"roughnessFactor":0.450053632},"emissiveFactor":[0.0,0.0,0.0],"alphaMode":"OPAQUE","name":"Konrad_Zuse"},{"pbrMetallicRoughness":{"baseColorFactor":[1.0,1.0,1.0,1.0],"baseColorTexture":{"index":2,"texCoord":0},"metallicFactor":0.0,"roughnessFactor":0.450053632},"emissiveFactor":[0.0,0.0,0.0],"alphaMode":"OPAQUE","name":"g_m"},{"pbrMetallicRoughness":{"baseColorFactor":[1.0,1.0,1.0,1.0],"baseColorTexture":{"index":3,"texCoord":0},"metallicFactor":0.0,"roughnessFactor":0.450053632},"emissiveFactor":[0.0,0.0,0.0],"alphaMode":"OPAQUE","name":"lambert117"},{"pbrMetallicRoughness":{"baseColorFactor":[1.0,1.0,1.0,1.0],"baseColorTexture":{"index":4,"texCoord":0},"metallicFactor":0.0,"roughnessFactor":0.450053632},"emissiveFactor":[0.0,0.0,0.0],"alphaMode":"OPAQUE","name":"lambert121"},{"pbrMetallicRoughness":{"baseColorFactor":[1.0,1.0,1.0,1.0],"baseColorTexture":{"index":5,"texCoord":0},"metallicFactor":0.0,"roughnessFactor":0.450053632},"emissiveFactor":[0.0,0.0,0.0],"alphaMode":"OPAQUE","name":"wall_flower_wall_paper"},{"pbrMetallicRoughness":{"baseColorFactor":[1.0,1.0,1.0,1.0],"baseColorTexture":{"index":6,"texCoord":0},"metallicFactor":0.0,"roughnessFactor":0.450053632},"emissiveFactor":[0.0,0.0,0.0],"alphaMode":"OPAQUE","name":"lambert101"},{"pbrMetallicRoughness":{"baseColorFactor":[1.0,1.0,1.0,1.0],"baseColorTexture":{"index":7,"texCoord":0},"metallicFactor":0.0,"roughnessFactor":0.450053632},"emissiveFactor":[0.0,0.0,0.0],"alphaMode":"OPAQUE","name":"roof"},{"pbrMetallicRoughness":{"baseColorFactor":[1.0,1.0,1.0,1.0],"baseColorTexture":{"index":8,"texCoord":0},"metallicFactor":0.0,"roughnessFactor":0.450053632},"emissiveFactor":[0.0,0.0,0.0],"alphaMode":"OPAQUE","name":"lambert98"},{"pbrMetallicRoughness":{"baseColorFactor":[0.5,0.5,0.5,1.0],"metallicFactor":0.0,"roughnessFactor":0.450053632},"emissiveFactor":[0.0,0.0,0.0],"alphaMode":"OPAQUE","name":"white_lambert"},{"pbrMetallicRoughness":{"baseColorFactor":[1.0,1.0,1.0,1.0],"baseColorTexture":{"index":9,"texCoord":0},"metallicFactor":0.0,"roughnessFactor":0.450053632},"emissiveFactor":[0.0,0.0,0.0],"alphaMode":"OPAQUE","name":"lambert1"},{"pbrMetallicRoughness":{"baseColorFactor":[0.130712986,0.130712986,0.130712986,1.0],"metallicFactor":0.0,"roughnessFactor":0.450053632},"emissiveFactor":[0.0,0.0,0.0],"alphaMode":"OPAQUE","name":"Gray_labert"},{"pbrMetallicRoughness":{"baseColorFactor":[1.0,1.0,1.0,1.0],"baseColorTexture":{"index":10,"texCoord":0},"metallicFactor":0.0,"roughnessFactor":0.450053632},"emissiveFactor":[0.0,0.0,0.0],"alphaMode":"OPAQUE","name":"outside_floor_texture"},{"pbrMetallicRoughness":{"baseColorFactor":[1.0,1.0,1.0,1.0],"baseColorTexture":{"index":11,"texCoord":0},"metallicFactor":0.0,"roughnessFactor":0.450053632},"emissiveFactor":[0.0,0.0,0.0],"alphaMode":"OPAQUE","name":"Neural_Network_"},{"pbrMetallicRoughness":{"baseColorFactor":[1.0,1.0,1.0,1.0],"baseColorTexture":{"index":12,"texCoord":0},"metallicFactor":0.0,"roughnessFactor":0.450053632},"emissiveFactor":[0.0,0.0,0.0],"alphaMode":"OPAQUE","name":"lambert112"},{"pbrMetallicRoughness":{"baseColorFactor":[1.0,1.0,1.0,1.0],"baseColorTexture":{"index":13,"texCoord":0},"metallicFactor":0.0,"roughnessFactor":0.450053632},"emissiveFactor":[0.0,0.0,0.0],"alphaMode":"OPAQUE","name":"lambert109"},{"pbrMetallicRoughness":{"baseColorFactor":[1.0,1.0,1.0,1.0],"baseColorTexture":{"index":14,"texCoord":0},"metallicFactor":0.0,"roughnessFactor":0.450053632},"emissiveFactor":[0.0,0.0,0.0],"alphaMode":"OPAQUE","name":"pic_white"},{"pbrMetallicRoughness":{"baseColorFactor":[1.0,1.0,1.0,1.0],"baseColorTexture":{"index":15,"texCoord":0},"metallicFactor":0.0,"roughnessFactor":0.450053632},"emissiveFactor":[0.0,0.0,0.0],"alphaMode":"OPAQUE","name":"Z3"}],"textures":[{"sampler":0,"source":0,"name":"deep_blue_Garry_Kasparov.jpg"},{"sampler":0,"source":1,"name":"Konrad_Zuse.jpg"},{"sampler":0,"source":2,"name":"g_m.jpg"},{"sampler":0,"source":3,"name":"seo.png"},{"sampler":0,"source":4,"name":"eee.png"},{"sampler":0,"source":5,"name":"wall_paper_flowers.jpg"},{"sampler":0,"source":6,"name":"brick_1.jpg"},{"sampler":0,"source":7,"name":"roof_title_1.jpg"},{"sampler":0,"source":8,"name":"shelf_wood.jpg"},{"sampler":0,"source":9,"name":"trading_booth_cetner.jpg"},{"sampler":0,"source":10,"name":"wooden_floor.jpg"},{"sampler":0,"source":11,"name":"Nerual_network.jpeg"},{"sampler":0,"source":12,"name":"chest_board.jpg"},{"sampler":0,"source":13,"name":"moors_law.png"},{"sampler":0,"source":14,"name":"white_2.png"},{"sampler":0,"source":15,"name":"z3.jpg"}],"images":[{"uri":"deep_blue_Garry_Kasparov.jpg"},{"uri":"Konrad_Zuse.jpg"},{"uri":"g_m.jpg"},{"uri":"seo.png"},{"uri":"eee.png"},{"uri":"wall_paper_flowers.jpg"},{"uri":"brick_1.jpg"},{"uri":"roof_title_1.jpg"},{"uri":"shelf_wood.jpg"},{"uri":"trading_booth_cetner.jpg"},{"uri":"wooden_floor.jpg"},{"uri":"Nerual_network.jpeg"},{"uri":"chest_board.jpg"},{"uri":"moors_law.png"},{"uri":"white_2.png"},{"uri":"z3.jpg"}],"samplers":[{"magFilter":9729,"minFilter":9987,"wrapS":10497,"wrapT":10497}]}