{"asset":{"version":"2.0","generator":"babylon.js glTF exporter for Maya 2018 v20190916.7"},"scene":0,"scenes":[{"nodes":[0,25],"extensions":{}}],"nodes":[{"children":[1,2,3,4,5,6,7,8,9,10,11,12,13,14,15,16,17,18,19,20,21,22,23,24],"translation":[0.0,0.0,0.0],"rotation":[0.0,0.0,0.0,1.0],"scale":[1.0,1.0,1.0],"name":"polySurface3899"},{"mesh":0,"translation":[0.0,0.0,0.7061901],"rotation":[0.0,0.0,0.0,1.0],"scale":[1.0,1.0,1.0],"name":"polySurface4224"},{"mesh":1,"translation":[0.0,0.0,0.7061901],"rotation":[0.0,0.0,0.0,1.0],"scale":[1.0,1.0,1.0],"name":"polySurface4225"},{"mesh":2,"translation":[0.0,0.0,0.0],"rotation":[0.0,0.0,0.0,1.0],"scale":[1.0,1.0,1.0],"name":"polySurface4226"},{"mesh":3,"translation":[-14.836031,0.0,0.0],"rotation":[0.0,0.0,0.0,1.0],"scale":[1.0,1.0,1.0],"name":"polySurface4234"},{"mesh":4,"translation":[-17.9558,0.0,-1.95385659],"rotation":[0.0,0.0,0.0,1.0],"scale":[1.24311543,1.0,0.153873563],"name":"polySurface4235"},{"mesh":5,"translation":[-3.55559182,0.0,8.081616],"rotation":[0.0,0.0,0.0,1.0],"scale":[1.0,1.0,1.0],"name":"polySurface4236"},{"mesh":6,"translation":[-14.836031,0.0,7.375426],"rotation":[0.0,0.0,0.0,1.0],"scale":[1.0,1.0,1.0],"name":"polySurface4238"},{"mesh":7,"translation":[0.0,0.0,8.081616],"rotation":[0.0,0.0,0.0,1.0],"scale":[1.0,1.0,1.0],"name":"polySurface4239"},{"mesh":8,"translation":[-3.32930923,0.0,5.429907],"rotation":[0.0,0.0,0.0,1.0],"scale":[1.24311543,1.0,0.153873563],"name":"polySurface4240"},{"mesh":9,"translation":[-17.94312,0.0,12.1995935],"rotation":[0.0,0.0,0.0,1.0],"scale":[1.24311543,1.0,0.153873563],"name":"polySurface4243"},{"mesh":10,"translation":[-14.8233509,0.0,21.5288754],"rotation":[0.0,0.0,0.0,1.0],"scale":[1.0,1.0,1.0],"name":"polySurface4244"},{"mesh":11,"translation":[0.0126801608,0.0,14.85964],"rotation":[0.0,0.0,0.0,1.0],"scale":[1.0,1.0,1.0],"name":"polySurface4245"},{"mesh":12,"translation":[-14.8233509,0.0,14.15345],"rotation":[0.0,0.0,0.0,1.0],"scale":[1.0,1.0,1.0],"name":"polySurface4246"},{"mesh":13,"translation":[0.0126801608,0.0,14.85964],"rotation":[0.0,0.0,0.0,1.0],"scale":[1.0,1.0,1.0],"name":"polySurface4248"},{"mesh":14,"translation":[-3.31662917,0.0,19.5833569],"rotation":[0.0,0.0,0.0,1.0],"scale":[1.24311543,1.0,0.153873563],"name":"polySurface4249"},{"mesh":15,"translation":[-3.54291153,0.0,22.2350655],"rotation":[0.0,0.0,0.0,1.0],"scale":[1.0,1.0,1.0],"name":"polySurface4250"},{"mesh":16,"translation":[0.0126801608,0.0,21.9666557],"rotation":[0.0,0.0,0.0,1.0],"scale":[1.0,1.0,1.0],"name":"polySurface4251"},{"mesh":17,"translation":[-3.31662917,0.0,26.8239517],"rotation":[0.0,0.0,0.0,1.0],"scale":[1.24311543,1.0,0.153873563],"name":"polySurface4253"},{"mesh":18,"translation":[0.0126801608,0.0,29.20725],"rotation":[0.0,0.0,0.0,1.0],"scale":[1.0,1.0,1.0],"name":"polySurface4254"},{"mesh":19,"translation":[-14.8233509,0.0,28.76947],"rotation":[0.0,0.0,0.0,1.0],"scale":[1.0,1.0,1.0],"name":"polySurface4256"},{"mesh":20,"translation":[-17.94312,0.0,19.4401875],"rotation":[0.0,0.0,0.0,1.0],"scale":[1.24311543,1.0,0.153873563],"name":"polySurface4257"},{"mesh":21,"translation":[-3.54291153,0.0,29.47566],"rotation":[0.0,0.0,0.0,1.0],"scale":[1.0,1.0,1.0],"name":"polySurface4258"},{"mesh":22,"translation":[0.0126801608,0.0,36.5993462],"rotation":[0.0,0.0,0.0,1.0],"scale":[1.0,1.0,1.0],"name":"polySurface4262"},{"mesh":23,"translation":[-3.54291153,0.0,36.62468],"rotation":[0.0,0.0,0.0,1.0],"scale":[1.0,1.0,1.0],"name":"polySurface4264"},{"translation":[0.0,0.0,0.0],"rotation":[0.0,0.0,0.0,1.0],"scale":[1.0,1.0,1.0],"name":"Default light"}],"meshes":[{"primitives":[{"attributes":{"POSITION":1,"TANGENT":2,"NORMAL":3,"TEXCOORD_0":4},"indices":0,"mode":4,"material":0}],"name":"polySurface4224"},{"primitives":[{"attributes":{"POSITION":6,"TANGENT":7,"NORMAL":8,"TEXCOORD_0":9},"indices":5,"mode":4,"material":0}],"name":"polySurface4225"},{"primitives":[{"attributes":{"POSITION":11,"TANGENT":12,"NORMAL":13,"TEXCOORD_0":14},"indices":10,"mode":4,"material":0}],"name":"polySurface4226"},{"primitives":[{"attributes":{"POSITION":16,"TANGENT":17,"NORMAL":18,"TEXCOORD_0":19},"indices":15,"mode":4,"material":0}],"name":"polySurface4234"},{"primitives":[{"attributes":{"POSITION":21,"TANGENT":22,"NORMAL":23,"TEXCOORD_0":24},"indices":20,"mode":4,"material":0}],"name":"polySurface4235"},{"primitives":[{"attributes":{"POSITION":26,"TANGENT":27,"NORMAL":28,"TEXCOORD_0":29},"indices":25,"mode":4,"material":0}],"name":"polySurface4236"},{"primitives":[{"attributes":{"POSITION":31,"TANGENT":32,"NORMAL":33,"TEXCOORD_0":34},"indices":30,"mode":4,"material":0}],"name":"polySurface4238"},{"primitives":[{"attributes":{"POSITION":36,"TANGENT":37,"NORMAL":38,"TEXCOORD_0":39},"indices":35,"mode":4,"material":0}],"name":"polySurface4239"},{"primitives":[{"attributes":{"POSITION":41,"TANGENT":42,"NORMAL":43,"TEXCOORD_0":44},"indices":40,"mode":4,"material":0}],"name":"polySurface4240"},{"primitives":[{"attributes":{"POSITION":46,"TANGENT":47,"NORMAL":48,"TEXCOORD_0":49},"indices":45,"mode":4,"material":0}],"name":"polySurface4243"},{"primitives":[{"attributes":{"POSITION":51,"TANGENT":52,"NORMAL":53,"TEXCOORD_0":54},"indices":50,"mode":4,"material":0}],"name":"polySurface4244"},{"primitives":[{"attributes":{"POSITION":56,"TANGENT":57,"NORMAL":58,"TEXCOORD_0":59},"indices":55,"mode":4,"material":0}],"name":"polySurface4245"},{"primitives":[{"attributes":{"POSITION":61,"TANGENT":62,"NORMAL":63,"TEXCOORD_0":64},"indices":60,"mode":4,"material":0}],"name":"polySurface4246"},{"primitives":[{"attributes":{"POSITION":66,"TANGENT":67,"NORMAL":68,"TEXCOORD_0":69},"indices":65,"mode":4,"material":0}],"name":"polySurface4248"},{"primitives":[{"attributes":{"POSITION":71,"TANGENT":72,"NORMAL":73,"TEXCOORD_0":74},"indices":70,"mode":4,"material":0}],"name":"polySurface4249"},{"primitives":[{"attributes":{"POSITION":76,"TANGENT":77,"NORMAL":78,"TEXCOORD_0":79},"indices":75,"mode":4,"material":0}],"name":"polySurface4250"},{"primitives":[{"attributes":{"POSITION":81,"TANGENT":82,"NORMAL":83,"TEXCOORD_0":84},"indices":80,"mode":4,"material":0}],"name":"polySurface4251"},{"primitives":[{"attributes":{"POSITION":86,"TANGENT":87,"NORMAL":88,"TEXCOORD_0":89},"indices":85,"mode":4,"material":0}],"name":"polySurface4253"},{"primitives":[{"attributes":{"POSITION":91,"TANGENT":92,"NORMAL":93,"TEXCOORD_0":94},"indices":90,"mode":4,"material":0}],"name":"polySurface4254"},{"primitives":[{"attributes":{"POSITION":96,"TANGENT":97,"NORMAL":98,"TEXCOORD_0":99},"indices":95,"mode":4,"material":0}],"name":"polySurface4256"},{"primitives":[{"attributes":{"POSITION":101,"TANGENT":102,"NORMAL":103,"TEXCOORD_0":104},"indices":100,"mode":4,"material":0}],"name":"polySurface4257"},{"primitives":[{"attributes":{"POSITION":106,"TANGENT":107,"NORMAL":108,"TEXCOORD_0":109},"indices":105,"mode":4,"material":0}],"name":"polySurface4258"},{"primitives":[{"attributes":{"POSITION":111,"TANGENT":112,"NORMAL":113,"TEXCOORD_0":114},"indices":110,"mode":4,"material":0}],"name":"polySurface4262"},{"primitives":[{"attributes":{"POSITION":116,"TANGENT":117,"NORMAL":118,"TEXCOORD_0":119},"indices":115,"mode":4,"material":0}],"name":"polySurface4264"}],"accessors":[{"bufferView":0,"componentType":5123,"count":12,"type":"SCALAR","name":"accessorIndices"},{"bufferView":1,"componentType":5126,"count":8,"max":[13.6304436,5.73048449,-3.74818087],"min":[13.0244761,-0.3019855,-9.996292],"type":"VEC3","name":"accessorPositions"},{"bufferView":2,"componentType":5126,"count":8,"type":"VEC4","name":"accessorTangents"},{"bufferView":1,"byteOffset":96,"componentType":5126,"count":8,"type":"VEC3","name":"accessorNormals"},{"bufferView":3,"componentType":5126,"count":8,"type":"VEC2","name":"accessorUVs"},{"bufferView":0,"byteOffset":24,"componentType":5123,"count":36,"type":"SCALAR","name":"accessorIndices"},{"bufferView":1,"byteOffset":192,"componentType":5126,"count":24,"max":[13.0270252,5.73048449,-3.290175],"min":[1.71637726,-0.3019855,-4.066056],"type":"VEC3","name":"accessorPositions"},{"bufferView":2,"byteOffset":128,"componentType":5126,"count":24,"type":"VEC4","name":"accessorTangents"},{"bufferView":1,"byteOffset":480,"componentType":5126,"count":24,"type":"VEC3","name":"accessorNormals"},{"bufferView":3,"byteOffset":64,"componentType":5126,"count":24,"type":"VEC2","name":"accessorUVs"},{"bufferView":0,"byteOffset":96,"componentType":5123,"count":78,"type":"SCALAR","name":"accessorIndices"},{"bufferView":1,"byteOffset":768,"componentType":5126,"count":48,"max":[13.4667044,5.73048449,-9.235898],"min":[-1.551626,-0.303962231,-9.9526825],"type":"VEC3","name":"accessorPositions"},{"bufferView":2,"byteOffset":512,"componentType":5126,"count":48,"type":"VEC4","name":"accessorTangents"},{"bufferView":1,"byteOffset":1344,"componentType":5126,"count":48,"type":"VEC3","name":"accessorNormals"},{"bufferView":3,"byteOffset":256,"componentType":5126,"count":48,"type":"VEC2","name":"accessorUVs"},{"bufferView":0,"byteOffset":252,"componentType":5123,"count":36,"type":"SCALAR","name":"accessorIndices"},{"bufferView":1,"byteOffset":1920,"componentType":5126,"count":24,"max":[13.6304436,5.73048449,-2.37296987],"min":[12.943078,-0.3019855,-9.822838],"type":"VEC3","name":"accessorPositions"},{"bufferView":2,"byteOffset":1280,"componentType":5126,"count":24,"type":"VEC4","name":"accessorTangents"},{"bufferView":1,"byteOffset":2208,"componentType":5126,"count":24,"type":"VEC3","name":"accessorNormals"},{"bufferView":3,"byteOffset":640,"componentType":5126,"count":24,"type":"VEC2","name":"accessorUVs"},{"bufferView":0,"byteOffset":324,"componentType":5123,"count":36,"type":"SCALAR","name":"accessorIndices"},{"bufferView":1,"byteOffset":2496,"componentType":5126,"count":24,"max":[13.6304436,5.75631046,-3.29026628],"min":[12.943078,-0.3019855,-9.822838],"type":"VEC3","name":"accessorPositions"},{"bufferView":2,"byteOffset":1664,"componentType":5126,"count":24,"type":"VEC4","name":"accessorTangents"},{"bufferView":1,"byteOffset":2784,"componentType":5126,"count":24,"type":"VEC3","name":"accessorNormals"},{"bufferView":3,"byteOffset":832,"componentType":5126,"count":24,"type":"VEC2","name":"accessorUVs"},{"bufferView":0,"byteOffset":396,"componentType":5123,"count":36,"type":"SCALAR","name":"accessorIndices"},{"bufferView":1,"byteOffset":3072,"componentType":5126,"count":24,"max":[13.9157219,5.73048449,-3.290175],"min":[1.71637726,-0.3019855,-4.066056],"type":"VEC3","name":"accessorPositions"},{"bufferView":2,"byteOffset":2048,"componentType":5126,"count":24,"type":"VEC4","name":"accessorTangents"},{"bufferView":1,"byteOffset":3360,"componentType":5126,"count":24,"type":"VEC3","name":"accessorNormals"},{"bufferView":3,"byteOffset":1024,"componentType":5126,"count":24,"type":"VEC2","name":"accessorUVs"},{"bufferView":0,"byteOffset":468,"componentType":5123,"count":36,"type":"SCALAR","name":"accessorIndices"},{"bufferView":1,"byteOffset":3648,"componentType":5126,"count":24,"max":[13.6304436,5.73048449,-2.37296987],"min":[12.943078,-0.3019855,-9.822838],"type":"VEC3","name":"accessorPositions"},{"bufferView":2,"byteOffset":2432,"componentType":5126,"count":24,"type":"VEC4","name":"accessorTangents"},{"bufferView":1,"byteOffset":3936,"componentType":5126,"count":24,"type":"VEC3","name":"accessorNormals"},{"bufferView":3,"byteOffset":1216,"componentType":5126,"count":24,"type":"VEC2","name":"accessorUVs"},{"bufferView":0,"byteOffset":540,"componentType":5123,"count":6,"type":"SCALAR","name":"accessorIndices"},{"bufferView":1,"byteOffset":4224,"componentType":5126,"count":4,"max":[13.0244761,5.73048449,-3.74818087],"min":[13.0244761,-0.3019855,-10.7434044],"type":"VEC3","name":"accessorPositions"},{"bufferView":2,"byteOffset":2816,"componentType":5126,"count":4,"type":"VEC4","name":"accessorTangents"},{"bufferView":1,"byteOffset":4272,"componentType":5126,"count":4,"type":"VEC3","name":"accessorNormals"},{"bufferView":3,"byteOffset":1408,"componentType":5126,"count":4,"type":"VEC2","name":"accessorUVs"},{"bufferView":0,"byteOffset":552,"componentType":5123,"count":36,"type":"SCALAR","name":"accessorIndices"},{"bufferView":1,"byteOffset":4320,"componentType":5126,"count":24,"max":[13.548564,5.75631046,-3.29026628],"min":[12.943078,-0.3019855,-9.822838],"type":"VEC3","name":"accessorPositions"},{"bufferView":2,"byteOffset":2880,"componentType":5126,"count":24,"type":"VEC4","name":"accessorTangents"},{"bufferView":1,"byteOffset":4608,"componentType":5126,"count":24,"type":"VEC3","name":"accessorNormals"},{"bufferView":3,"byteOffset":1440,"componentType":5126,"count":24,"type":"VEC2","name":"accessorUVs"},{"bufferView":0,"byteOffset":624,"componentType":5123,"count":36,"type":"SCALAR","name":"accessorIndices"},{"bufferView":1,"byteOffset":4896,"componentType":5126,"count":24,"max":[13.6304436,5.75631046,-3.29026628],"min":[12.943078,-0.3019855,-9.822838],"type":"VEC3","name":"accessorPositions"},{"bufferView":2,"byteOffset":3264,"componentType":5126,"count":24,"type":"VEC4","name":"accessorTangents"},{"bufferView":1,"byteOffset":5184,"componentType":5126,"count":24,"type":"VEC3","name":"accessorNormals"},{"bufferView":3,"byteOffset":1632,"componentType":5126,"count":24,"type":"VEC2","name":"accessorUVs"},{"bufferView":0,"byteOffset":696,"componentType":5123,"count":36,"type":"SCALAR","name":"accessorIndices"},{"bufferView":1,"byteOffset":5472,"componentType":5126,"count":24,"max":[13.6304436,5.73048449,-2.37296987],"min":[12.943078,-0.3019855,-9.822838],"type":"VEC3","name":"accessorPositions"},{"bufferView":2,"byteOffset":3648,"componentType":5126,"count":24,"type":"VEC4","name":"accessorTangents"},{"bufferView":1,"byteOffset":5760,"componentType":5126,"count":24,"type":"VEC3","name":"accessorNormals"},{"bufferView":3,"byteOffset":1824,"componentType":5126,"count":24,"type":"VEC2","name":"accessorUVs"},{"bufferView":0,"byteOffset":768,"componentType":5123,"count":36,"type":"SCALAR","name":"accessorIndices"},{"bufferView":1,"byteOffset":6048,"componentType":5126,"count":24,"max":[13.0270252,5.73048449,-3.290175],"min":[1.71637726,-0.3019855,-4.066056],"type":"VEC3","name":"accessorPositions"},{"bufferView":2,"byteOffset":4032,"componentType":5126,"count":24,"type":"VEC4","name":"accessorTangents"},{"bufferView":1,"byteOffset":6336,"componentType":5126,"count":24,"type":"VEC3","name":"accessorNormals"},{"bufferView":3,"byteOffset":2016,"componentType":5126,"count":24,"type":"VEC2","name":"accessorUVs"},{"bufferView":0,"byteOffset":840,"componentType":5123,"count":36,"type":"SCALAR","name":"accessorIndices"},{"bufferView":1,"byteOffset":6624,"componentType":5126,"count":24,"max":[13.6304436,5.73048449,-2.37296987],"min":[12.943078,-0.3019855,-9.822838],"type":"VEC3","name":"accessorPositions"},{"bufferView":2,"byteOffset":4416,"componentType":5126,"count":24,"type":"VEC4","name":"accessorTangents"},{"bufferView":1,"byteOffset":6912,"componentType":5126,"count":24,"type":"VEC3","name":"accessorNormals"},{"bufferView":3,"byteOffset":2208,"componentType":5126,"count":24,"type":"VEC2","name":"accessorUVs"},{"bufferView":0,"byteOffset":912,"componentType":5123,"count":12,"type":"SCALAR","name":"accessorIndices"},{"bufferView":1,"byteOffset":7200,"componentType":5126,"count":8,"max":[13.6304436,5.73048449,-3.74818087],"min":[13.0244761,-0.3019855,-9.996292],"type":"VEC3","name":"accessorPositions"},{"bufferView":2,"byteOffset":4800,"componentType":5126,"count":8,"type":"VEC4","name":"accessorTangents"},{"bufferView":1,"byteOffset":7296,"componentType":5126,"count":8,"type":"VEC3","name":"accessorNormals"},{"bufferView":3,"byteOffset":2400,"componentType":5126,"count":8,"type":"VEC2","name":"accessorUVs"},{"bufferView":0,"byteOffset":936,"componentType":5123,"count":36,"type":"SCALAR","name":"accessorIndices"},{"bufferView":1,"byteOffset":7392,"componentType":5126,"count":24,"max":[13.5219707,5.75631046,-3.29026628],"min":[12.943078,-0.3019855,-9.822838],"type":"VEC3","name":"accessorPositions"},{"bufferView":2,"byteOffset":4928,"componentType":5126,"count":24,"type":"VEC4","name":"accessorTangents"},{"bufferView":1,"byteOffset":7680,"componentType":5126,"count":24,"type":"VEC3","name":"accessorNormals"},{"bufferView":3,"byteOffset":2464,"componentType":5126,"count":24,"type":"VEC2","name":"accessorUVs"},{"bufferView":0,"byteOffset":1008,"componentType":5123,"count":36,"type":"SCALAR","name":"accessorIndices"},{"bufferView":1,"byteOffset":7968,"componentType":5126,"count":24,"max":[13.3213263,5.73048449,-3.290175],"min":[1.71637726,-0.3019855,-4.066056],"type":"VEC3","name":"accessorPositions"},{"bufferView":2,"byteOffset":5312,"componentType":5126,"count":24,"type":"VEC4","name":"accessorTangents"},{"bufferView":1,"byteOffset":8256,"componentType":5126,"count":24,"type":"VEC3","name":"accessorNormals"},{"bufferView":3,"byteOffset":2656,"componentType":5126,"count":24,"type":"VEC2","name":"accessorUVs"},{"bufferView":0,"byteOffset":1080,"componentType":5123,"count":6,"type":"SCALAR","name":"accessorIndices"},{"bufferView":1,"byteOffset":8544,"componentType":5126,"count":4,"max":[13.0244761,5.73048449,-3.74818087],"min":[13.0244761,-0.3019855,-10.5108376],"type":"VEC3","name":"accessorPositions"},{"bufferView":2,"byteOffset":5696,"componentType":5126,"count":4,"type":"VEC4","name":"accessorTangents"},{"bufferView":1,"byteOffset":8592,"componentType":5126,"count":4,"type":"VEC3","name":"accessorNormals"},{"bufferView":3,"byteOffset":2848,"componentType":5126,"count":4,"type":"VEC2","name":"accessorUVs"},{"bufferView":0,"byteOffset":1092,"componentType":5123,"count":36,"type":"SCALAR","name":"accessorIndices"},{"bufferView":1,"byteOffset":8640,"componentType":5126,"count":24,"max":[13.5219707,5.75631046,-3.29026628],"min":[12.943078,-0.3019855,-9.822838],"type":"VEC3","name":"accessorPositions"},{"bufferView":2,"byteOffset":5760,"componentType":5126,"count":24,"type":"VEC4","name":"accessorTangents"},{"bufferView":1,"byteOffset":8928,"componentType":5126,"count":24,"type":"VEC3","name":"accessorNormals"},{"bufferView":3,"byteOffset":2880,"componentType":5126,"count":24,"type":"VEC2","name":"accessorUVs"},{"bufferView":0,"byteOffset":1164,"componentType":5123,"count":6,"type":"SCALAR","name":"accessorIndices"},{"bufferView":1,"byteOffset":9216,"componentType":5126,"count":4,"max":[13.0244761,5.73048449,-3.74818087],"min":[13.0244761,-0.3019855,-10.5108376],"type":"VEC3","name":"accessorPositions"},{"bufferView":2,"byteOffset":6144,"componentType":5126,"count":4,"type":"VEC4","name":"accessorTangents"},{"bufferView":1,"byteOffset":9264,"componentType":5126,"count":4,"type":"VEC3","name":"accessorNormals"},{"bufferView":3,"byteOffset":3072,"componentType":5126,"count":4,"type":"VEC2","name":"accessorUVs"},{"bufferView":0,"byteOffset":1176,"componentType":5123,"count":36,"type":"SCALAR","name":"accessorIndices"},{"bufferView":1,"byteOffset":9312,"componentType":5126,"count":24,"max":[13.6304436,5.73048449,-2.37296987],"min":[12.943078,-0.3019855,-9.822838],"type":"VEC3","name":"accessorPositions"},{"bufferView":2,"byteOffset":6208,"componentType":5126,"count":24,"type":"VEC4","name":"accessorTangents"},{"bufferView":1,"byteOffset":9600,"componentType":5126,"count":24,"type":"VEC3","name":"accessorNormals"},{"bufferView":3,"byteOffset":3104,"componentType":5126,"count":24,"type":"VEC2","name":"accessorUVs"},{"bufferView":0,"byteOffset":1248,"componentType":5123,"count":36,"type":"SCALAR","name":"accessorIndices"},{"bufferView":1,"byteOffset":9888,"componentType":5126,"count":24,"max":[13.6304436,5.75631046,-3.29026628],"min":[12.943078,-0.3019855,-9.822838],"type":"VEC3","name":"accessorPositions"},{"bufferView":2,"byteOffset":6592,"componentType":5126,"count":24,"type":"VEC4","name":"accessorTangents"},{"bufferView":1,"byteOffset":10176,"componentType":5126,"count":24,"type":"VEC3","name":"accessorNormals"},{"bufferView":3,"byteOffset":3296,"componentType":5126,"count":24,"type":"VEC2","name":"accessorUVs"},{"bufferView":0,"byteOffset":1320,"componentType":5123,"count":36,"type":"SCALAR","name":"accessorIndices"},{"bufferView":1,"byteOffset":10464,"componentType":5126,"count":24,"max":[13.3213263,5.73048449,-3.290175],"min":[1.71637726,-0.3019855,-4.066056],"type":"VEC3","name":"accessorPositions"},{"bufferView":2,"byteOffset":6976,"componentType":5126,"count":24,"type":"VEC4","name":"accessorTangents"},{"bufferView":1,"byteOffset":10752,"componentType":5126,"count":24,"type":"VEC3","name":"accessorNormals"},{"bufferView":3,"byteOffset":3488,"componentType":5126,"count":24,"type":"VEC2","name":"accessorUVs"},{"bufferView":0,"byteOffset":1392,"componentType":5123,"count":6,"type":"SCALAR","name":"accessorIndices"},{"bufferView":1,"byteOffset":11040,"componentType":5126,"count":4,"max":[13.0244761,5.73048449,-3.74818087],"min":[13.0244761,-0.3019855,-10.5108376],"type":"VEC3","name":"accessorPositions"},{"bufferView":2,"byteOffset":7360,"componentType":5126,"count":4,"type":"VEC4","name":"accessorTangents"},{"bufferView":1,"byteOffset":11088,"componentType":5126,"count":4,"type":"VEC3","name":"accessorNormals"},{"bufferView":3,"byteOffset":3680,"componentType":5126,"count":4,"type":"VEC2","name":"accessorUVs"},{"bufferView":0,"byteOffset":1404,"componentType":5123,"count":36,"type":"SCALAR","name":"accessorIndices"},{"bufferView":1,"byteOffset":11136,"componentType":5126,"count":24,"max":[16.8462868,5.73048449,-3.290175],"min":[1.71637726,-0.3019855,-4.066056],"type":"VEC3","name":"accessorPositions"},{"bufferView":2,"byteOffset":7424,"componentType":5126,"count":24,"type":"VEC4","name":"accessorTangents"},{"bufferView":1,"byteOffset":11424,"componentType":5126,"count":24,"type":"VEC3","name":"accessorNormals"},{"bufferView":3,"byteOffset":3712,"componentType":5126,"count":24,"type":"VEC2","name":"accessorUVs"}],"bufferViews":[{"buffer":0,"byteLength":1476,"name":"bufferViewScalar"},{"buffer":0,"byteOffset":1476,"byteLength":11712,"byteStride":12,"name":"bufferViewFloatVec3"},{"buffer":0,"byteOffset":13188,"byteLength":7808,"byteStride":16,"name":"bufferViewFloatVec4"},{"buffer":0,"byteOffset":20996,"byteLength":3904,"byteStride":8,"name":"bufferViewFloatVec2"}],"buffers":[{"uri":"walls_101.bin","byteLength":24900}],"materials":[{"pbrMetallicRoughness":{"baseColorFactor":[1.0,1.0,1.0,1.0],"baseColorTexture":{"index":0,"texCoord":0},"metallicFactor":0.0,"roughnessFactor":0.450053632},"emissiveFactor":[0.0,0.0,0.0],"alphaMode":"OPAQUE","name":"wall_flower_wall_paper"}],"textures":[{"sampler":0,"source":0,"name":"wall_paper_flowers.jpg"}],"images":[{"uri":"wall_paper_flowers.jpg"}],"samplers":[{"magFilter":9729,"minFilter":9987,"wrapS":10497,"wrapT":10497}]}