{"asset":{"version":"2.0","generator":"babylon.js glTF exporter for Maya 2018 v20190916.7"},"scene":0,"scenes":[{"nodes":[0,1],"extensions":{}}],"nodes":[{"mesh":0,"translation":[0.0,0.0,0.0],"rotation":[0.0,0.0,0.0,1.0],"scale":[1.0,1.0,1.0],"name":"polySurface4289"},{"translation":[0.0,0.0,0.0],"rotation":[0.0,0.0,0.0,1.0],"scale":[1.0,1.0,1.0],"name":"Default light"}],"meshes":[{"primitives":[{"attributes":{"POSITION":1,"TANGENT":2,"NORMAL":3,"TEXCOORD_0":4},"indices":0,"mode":4,"material":0},{"attributes":{"POSITION":6,"TANGENT":7,"NORMAL":8,"TEXCOORD_0":9},"indices":5,"mode":4,"material":1},{"attributes":{"POSITION":11,"TANGENT":12,"NORMAL":13,"TEXCOORD_0":14},"indices":10,"mode":4,"material":2},{"attributes":{"POSITION":16,"TANGENT":17,"NORMAL":18,"TEXCOORD_0":19},"indices":15,"mode":4,"material":3},{"attributes":{"POSITION":21,"TANGENT":22,"NORMAL":23,"TEXCOORD_0":24},"indices":20,"mode":4,"material":4},{"attributes":{"POSITION":26,"TANGENT":27,"NORMAL":28,"TEXCOORD_0":29},"indices":25,"mode":4,"material":5},{"attributes":{"POSITION":31,"TANGENT":32,"NORMAL":33,"TEXCOORD_0":34},"indices":30,"mode":4,"material":6},{"attributes":{"POSITION":36,"TANGENT":37,"NORMAL":38,"TEXCOORD_0":39},"indices":35,"mode":4,"material":7},{"attributes":{"POSITION":41,"TANGENT":42,"NORMAL":43,"TEXCOORD_0":44},"indices":40,"mode":4,"material":8},{"attributes":{"POSITION":46,"TANGENT":47,"NORMAL":48,"TEXCOORD_0":49},"indices":45,"mode":4,"material":9},{"attributes":{"POSITION":51,"TANGENT":52,"NORMAL":53,"TEXCOORD_0":54},"indices":50,"mode":4,"material":10},{"attributes":{"POSITION":56,"TANGENT":57,"NORMAL":58,"TEXCOORD_0":59},"indices":55,"mode":4,"material":11},{"attributes":{"POSITION":61,"TANGENT":62,"NORMAL":63,"TEXCOORD_0":64},"indices":60,"mode":4,"material":12},{"attributes":{"POSITION":66,"TANGENT":67,"NORMAL":68,"TEXCOORD_0":69},"indices":65,"mode":4,"material":13},{"attributes":{"POSITION":71,"TANGENT":72,"NORMAL":73,"TEXCOORD_0":74},"indices":70,"mode":4,"material":14},{"attributes":{"POSITION":76,"TANGENT":77,"NORMAL":78,"TEXCOORD_0":79},"indices":75,"mode":4,"material":15}],"name":"polySurface4289"}],"accessors":[{"bufferView":0,"componentType":5123,"count":468,"type":"SCALAR","name":"accessorIndices"},{"bufferView":1,"componentType":5126,"count":264,"max":[10.4304047,3.83475757,32.571022],"min":[5.84160471,1.74506426,-3.55971622],"type":"VEC3","name":"accessorPositions"},{"bufferView":2,"componentType":5126,"count":264,"type":"VEC4","name":"accessorTangents"},{"bufferView":1,"byteOffset":3168,"componentType":5126,"count":264,"type":"VEC3","name":"accessorNormals"},{"bufferView":3,"componentType":5126,"count":264,"type":"VEC2","name":"accessorUVs"},{"bufferView":0,"byteOffset":936,"componentType":5123,"count":6,"type":"SCALAR","name":"accessorIndices"},{"bufferView":1,"byteOffset":6336,"componentType":5126,"count":4,"max":[8.631616,3.60072541,18.0597839],"min":[7.35997438,1.97909641,18.0597839],"type":"VEC3","name":"accessorPositions"},{"bufferView":2,"byteOffset":4224,"componentType":5126,"count":4,"type":"VEC4","name":"accessorTangents"},{"bufferView":1,"byteOffset":6384,"componentType":5126,"count":4,"type":"VEC3","name":"accessorNormals"},{"bufferView":3,"byteOffset":2112,"componentType":5126,"count":4,"type":"VEC2","name":"accessorUVs"},{"bufferView":0,"byteOffset":948,"componentType":5123,"count":22023,"type":"SCALAR","name":"accessorIndices"},{"bufferView":1,"byteOffset":6432,"componentType":5126,"count":7613,"max":[10.2533627,7.99016762,32.55008],"min":[0.0399312973,1.78537667,-10.0823727],"type":"VEC3","name":"accessorPositions"},{"bufferView":2,"byteOffset":4288,"componentType":5126,"count":7613,"type":"VEC4","name":"accessorTangents"},{"bufferView":1,"byteOffset":97788,"componentType":5126,"count":7613,"type":"VEC3","name":"accessorNormals"},{"bufferView":3,"byteOffset":2144,"componentType":5126,"count":7613,"type":"VEC2","name":"accessorUVs"},{"bufferView":0,"byteOffset":44996,"componentType":5123,"count":6,"type":"SCALAR","name":"accessorIndices"},{"bufferView":1,"byteOffset":189144,"componentType":5126,"count":4,"max":[7.265,3.60072541,11.043622],"min":[5.993358,1.97909641,11.043622],"type":"VEC3","name":"accessorPositions"},{"bufferView":2,"byteOffset":126096,"componentType":5126,"count":4,"type":"VEC4","name":"accessorTangents"},{"bufferView":1,"byteOffset":189192,"componentType":5126,"count":4,"type":"VEC3","name":"accessorNormals"},{"bufferView":3,"byteOffset":63048,"componentType":5126,"count":4,"type":"VEC2","name":"accessorUVs"},{"bufferView":0,"byteOffset":45008,"componentType":5123,"count":6,"type":"SCALAR","name":"accessorIndices"},{"bufferView":1,"byteOffset":189240,"componentType":5126,"count":4,"max":[10.1302023,3.60072541,10.6828213],"min":[8.858561,1.97909641,10.6828213],"type":"VEC3","name":"accessorPositions"},{"bufferView":2,"byteOffset":126160,"componentType":5126,"count":4,"type":"VEC4","name":"accessorTangents"},{"bufferView":1,"byteOffset":189288,"componentType":5126,"count":4,"type":"VEC3","name":"accessorNormals"},{"bufferView":3,"byteOffset":63080,"componentType":5126,"count":4,"type":"VEC2","name":"accessorUVs"},{"bufferView":0,"byteOffset":45020,"componentType":5123,"count":594,"type":"SCALAR","name":"accessorIndices"},{"bufferView":1,"byteOffset":189336,"componentType":5126,"count":392,"max":[13.6304436,5.75631046,33.3345032],"min":[-1.89295292,-0.372113526,-9.9526825],"type":"VEC3","name":"accessorPositions"},{"bufferView":2,"byteOffset":126224,"componentType":5126,"count":392,"type":"VEC4","name":"accessorTangents"},{"bufferView":1,"byteOffset":194040,"componentType":5126,"count":392,"type":"VEC3","name":"accessorNormals"},{"bufferView":3,"byteOffset":63112,"componentType":5126,"count":392,"type":"VEC2","name":"accessorUVs"},{"bufferView":0,"byteOffset":46208,"componentType":5123,"count":6,"type":"SCALAR","name":"accessorIndices"},{"bufferView":1,"byteOffset":198744,"componentType":5126,"count":4,"max":[13.4023218,0.9528992,33.34946],"min":[-1.94726229,0.952524066,-9.94611549],"type":"VEC3","name":"accessorPositions"},{"bufferView":2,"byteOffset":132496,"componentType":5126,"count":4,"type":"VEC4","name":"accessorTangents"},{"bufferView":1,"byteOffset":198792,"componentType":5126,"count":4,"type":"VEC3","name":"accessorNormals"},{"bufferView":3,"byteOffset":66248,"componentType":5126,"count":4,"type":"VEC2","name":"accessorUVs"},{"bufferView":0,"byteOffset":46220,"componentType":5123,"count":678,"type":"SCALAR","name":"accessorIndices"},{"bufferView":1,"byteOffset":198840,"componentType":5126,"count":334,"max":[9.105904,3.50794482,3.88011122],"min":[5.987255,1.76577616,3.02128124],"type":"VEC3","name":"accessorPositions"},{"bufferView":2,"byteOffset":132560,"componentType":5126,"count":334,"type":"VEC4","name":"accessorTangents"},{"bufferView":1,"byteOffset":202848,"componentType":5126,"count":334,"type":"VEC3","name":"accessorNormals"},{"bufferView":3,"byteOffset":66280,"componentType":5126,"count":334,"type":"VEC2","name":"accessorUVs"},{"bufferView":0,"byteOffset":47576,"componentType":5123,"count":690,"type":"SCALAR","name":"accessorIndices"},{"bufferView":1,"byteOffset":206856,"componentType":5126,"count":577,"max":[9.105904,3.50794482,3.88011122],"min":[5.987255,1.76577616,3.02128124],"type":"VEC3","name":"accessorPositions"},{"bufferView":2,"byteOffset":137904,"componentType":5126,"count":577,"type":"VEC4","name":"accessorTangents"},{"bufferView":1,"byteOffset":213780,"componentType":5126,"count":577,"type":"VEC3","name":"accessorNormals"},{"bufferView":3,"byteOffset":68952,"componentType":5126,"count":577,"type":"VEC2","name":"accessorUVs"},{"bufferView":0,"byteOffset":48956,"componentType":5123,"count":36,"type":"SCALAR","name":"accessorIndices"},{"bufferView":1,"byteOffset":220704,"componentType":5126,"count":24,"max":[7.67452431,0.5,5.004764],"min":[6.67452431,-0.5,4.004764],"type":"VEC3","name":"accessorPositions"},{"bufferView":2,"byteOffset":147136,"componentType":5126,"count":24,"type":"VEC4","name":"accessorTangents"},{"bufferView":1,"byteOffset":220992,"componentType":5126,"count":24,"type":"VEC3","name":"accessorNormals"},{"bufferView":3,"byteOffset":73568,"componentType":5126,"count":24,"type":"VEC2","name":"accessorUVs"},{"bufferView":0,"byteOffset":49028,"componentType":5123,"count":72,"type":"SCALAR","name":"accessorIndices"},{"bufferView":1,"byteOffset":221280,"componentType":5126,"count":48,"max":[9.459014,2.83688116,4.038579],"min":[5.959285,1.67035186,3.23376656],"type":"VEC3","name":"accessorPositions"},{"bufferView":2,"byteOffset":147520,"componentType":5126,"count":48,"type":"VEC4","name":"accessorTangents"},{"bufferView":1,"byteOffset":221856,"componentType":5126,"count":48,"type":"VEC3","name":"accessorNormals"},{"bufferView":3,"byteOffset":73760,"componentType":5126,"count":48,"type":"VEC2","name":"accessorUVs"},{"bufferView":0,"byteOffset":49172,"componentType":5123,"count":6,"type":"SCALAR","name":"accessorIndices"},{"bufferView":1,"byteOffset":222432,"componentType":5126,"count":4,"max":[13.6640778,5.720067,33.34946],"min":[-2.287716,5.66805649,-9.990415],"type":"VEC3","name":"accessorPositions"},{"bufferView":2,"byteOffset":148288,"componentType":5126,"count":4,"type":"VEC4","name":"accessorTangents"},{"bufferView":1,"byteOffset":222480,"componentType":5126,"count":4,"type":"VEC3","name":"accessorNormals"},{"bufferView":3,"byteOffset":74144,"componentType":5126,"count":4,"type":"VEC2","name":"accessorUVs"},{"bufferView":0,"byteOffset":49184,"componentType":5123,"count":12,"type":"SCALAR","name":"accessorIndices"},{"bufferView":1,"byteOffset":222528,"componentType":5126,"count":8,"max":[13.6942749,10.3146477,33.37719],"min":[-2.23980331,5.740485,-10.0099239],"type":"VEC3","name":"accessorPositions"},{"bufferView":2,"byteOffset":148352,"componentType":5126,"count":8,"type":"VEC4","name":"accessorTangents"},{"bufferView":1,"byteOffset":222624,"componentType":5126,"count":8,"type":"VEC3","name":"accessorNormals"},{"bufferView":3,"byteOffset":74176,"componentType":5126,"count":8,"type":"VEC2","name":"accessorUVs"},{"bufferView":0,"byteOffset":49208,"componentType":5123,"count":42,"type":"SCALAR","name":"accessorIndices"},{"bufferView":1,"byteOffset":222720,"componentType":5126,"count":28,"max":[13.6891594,10.3188992,33.3956337],"min":[-2.21608353,-0.3019855,-9.987912],"type":"VEC3","name":"accessorPositions"},{"bufferView":2,"byteOffset":148480,"componentType":5126,"count":28,"type":"VEC4","name":"accessorTangents"},{"bufferView":1,"byteOffset":223056,"componentType":5126,"count":28,"type":"VEC3","name":"accessorNormals"},{"bufferView":3,"byteOffset":74240,"componentType":5126,"count":28,"type":"VEC2","name":"accessorUVs"},{"bufferView":0,"byteOffset":49292,"componentType":5123,"count":6,"type":"SCALAR","name":"accessorIndices"},{"bufferView":1,"byteOffset":223392,"componentType":5126,"count":4,"max":[9.791188,3.60072541,-3.45731544],"min":[8.51954651,1.97909641,-3.45731544],"type":"VEC3","name":"accessorPositions"},{"bufferView":2,"byteOffset":148928,"componentType":5126,"count":4,"type":"VEC4","name":"accessorTangents"},{"bufferView":1,"byteOffset":223440,"componentType":5126,"count":4,"type":"VEC3","name":"accessorNormals"},{"bufferView":3,"byteOffset":74464,"componentType":5126,"count":4,"type":"VEC2","name":"accessorUVs"},{"bufferView":0,"byteOffset":49304,"componentType":5123,"count":12,"type":"SCALAR","name":"accessorIndices"},{"bufferView":1,"byteOffset":223488,"componentType":5126,"count":8,"max":[10.2788267,3.60072541,32.42457],"min":[9.007009,1.976914,25.2547741],"type":"VEC3","name":"accessorPositions"},{"bufferView":2,"byteOffset":148992,"componentType":5126,"count":8,"type":"VEC4","name":"accessorTangents"},{"bufferView":1,"byteOffset":223584,"componentType":5126,"count":8,"type":"VEC3","name":"accessorNormals"},{"bufferView":3,"byteOffset":74496,"componentType":5126,"count":8,"type":"VEC2","name":"accessorUVs"}],"bufferViews":[{"buffer":0,"byteLength":49328,"name":"bufferViewScalar"},{"buffer":0,"byteOffset":49328,"byteLength":223680,"byteStride":12,"name":"bufferViewFloatVec3"},{"buffer":0,"byteOffset":273008,"byteLength":149120,"byteStride":16,"name":"bufferViewFloatVec4"},{"buffer":0,"byteOffset":422128,"byteLength":74560,"byteStride":8,"name":"bufferViewFloatVec2"}],"buffers":[{"uri":"walls_102.bin","byteLength":496688}],"materials":[{"pbrMetallicRoughness":{"baseColorFactor":[0.0,0.0,0.0,1.0],"metallicFactor":0.0,"roughnessFactor":0.450053632},"emissiveFactor":[0.0,0.0,0.0],"alphaMode":"OPAQUE","name":"lambert91"},{"pbrMetallicRoughness":{"baseColorFactor":[1.0,1.0,1.0,1.0],"baseColorTexture":{"index":0,"texCoord":0},"metallicFactor":0.0,"roughnessFactor":0.450053632},"emissiveFactor":[0.0,0.0,0.0],"alphaMode":"OPAQUE","name":"lambert109"},{"pbrMetallicRoughness":{"baseColorFactor":[0.0,0.0,0.0,1.0],"metallicFactor":0.0,"roughnessFactor":0.450053632},"emissiveFactor":[0.0,0.0,0.0],"alphaMode":"OPAQUE","name":"black_lambert"},{"pbrMetallicRoughness":{"baseColorFactor":[1.0,1.0,1.0,1.0],"baseColorTexture":{"index":1,"texCoord":0},"metallicFactor":0.0,"roughnessFactor":0.450053632},"emissiveFactor":[0.0,0.0,0.0],"alphaMode":"OPAQUE","name":"lambert108"},{"pbrMetallicRoughness":{"baseColorFactor":[1.0,1.0,1.0,1.0],"baseColorTexture":{"index":2,"texCoord":0},"metallicFactor":0.0,"roughnessFactor":0.450053632},"emissiveFactor":[0.0,0.0,0.0],"alphaMode":"OPAQUE","name":"Neural_Network_"},{"pbrMetallicRoughness":{"baseColorFactor":[1.0,1.0,1.0,1.0],"baseColorTexture":{"index":3,"texCoord":0},"metallicFactor":0.0,"roughnessFactor":0.450053632},"emissiveFactor":[0.0,0.0,0.0],"alphaMode":"OPAQUE","name":"wall_flower_wall_paper"},{"pbrMetallicRoughness":{"baseColorFactor":[1.0,1.0,1.0,1.0],"baseColorTexture":{"index":4,"texCoord":0},"metallicFactor":0.0,"roughnessFactor":0.450053632},"emissiveFactor":[0.0,0.0,0.0],"alphaMode":"OPAQUE","name":"outside_floor_texture"},{"pbrMetallicRoughness":{"baseColorFactor":[0.5,0.5,0.5,1.0],"metallicFactor":0.0,"roughnessFactor":0.450053632},"emissiveFactor":[0.0,0.0,0.0],"alphaMode":"OPAQUE","name":"white_lambert"},{"pbrMetallicRoughness":{"baseColorFactor":[0.130712986,0.130712986,0.130712986,1.0],"metallicFactor":0.0,"roughnessFactor":0.450053632},"emissiveFactor":[0.0,0.0,0.0],"alphaMode":"OPAQUE","name":"Gray_labert"},{"pbrMetallicRoughness":{"baseColorFactor":[1.0,1.0,1.0,1.0],"baseColorTexture":{"index":5,"texCoord":0},"metallicFactor":0.0,"roughnessFactor":0.450053632},"emissiveFactor":[0.0,0.0,0.0],"alphaMode":"OPAQUE","name":"lambert1"},{"pbrMetallicRoughness":{"baseColorFactor":[1.0,1.0,1.0,1.0],"baseColorTexture":{"index":6,"texCoord":0},"metallicFactor":0.0,"roughnessFactor":0.450053632},"emissiveFactor":[0.0,0.0,0.0],"alphaMode":"OPAQUE","name":"lambert98"},{"pbrMetallicRoughness":{"baseColorFactor":[1.0,1.0,1.0,1.0],"baseColorTexture":{"index":7,"texCoord":0},"metallicFactor":0.0,"roughnessFactor":0.450053632},"emissiveFactor":[0.0,0.0,0.0],"alphaMode":"OPAQUE","name":"celiling_white_1"},{"pbrMetallicRoughness":{"baseColorFactor":[1.0,1.0,1.0,1.0],"baseColorTexture":{"index":8,"texCoord":0},"metallicFactor":0.0,"roughnessFactor":0.450053632},"emissiveFactor":[0.0,0.0,0.0],"alphaMode":"OPAQUE","name":"roof"},{"pbrMetallicRoughness":{"baseColorFactor":[1.0,1.0,1.0,1.0],"baseColorTexture":{"index":9,"texCoord":0},"metallicFactor":0.0,"roughnessFactor":0.450053632},"emissiveFactor":[0.0,0.0,0.0],"alphaMode":"OPAQUE","name":"lambert101"},{"pbrMetallicRoughness":{"baseColorFactor":[1.0,1.0,1.0,1.0],"baseColorTexture":{"index":10,"texCoord":0},"metallicFactor":0.0,"roughnessFactor":0.450053632},"emissiveFactor":[0.0,0.0,0.0],"alphaMode":"OPAQUE","name":"Z3"},{"pbrMetallicRoughness":{"baseColorFactor":[1.0,1.0,1.0,1.0],"baseColorTexture":{"index":11,"texCoord":0},"metallicFactor":0.0,"roughnessFactor":0.450053632},"emissiveFactor":[0.0,0.0,0.0],"alphaMode":"OPAQUE","name":"lambert112"}],"textures":[{"sampler":0,"source":0,"name":"moors_law.png"},{"sampler":0,"source":1,"name":"marvin_minsky.jpg"},{"sampler":0,"source":2,"name":"Nerual_network.jpeg"},{"sampler":0,"source":3,"name":"wall_paper_flowers.jpg"},{"sampler":0,"source":4,"name":"wooden_floor.jpg"},{"sampler":0,"source":5,"name":"trading_booth_cetner.jpg"},{"sampler":0,"source":6,"name":"shelf_wood.jpg"},{"sampler":0,"source":7,"name":"celiing 1.jpg"},{"sampler":0,"source":8,"name":"roof_title_1.jpg"},{"sampler":0,"source":9,"name":"brick_1.jpg"},{"sampler":0,"source":10,"name":"z3.jpg"},{"sampler":0,"source":11,"name":"chest_board.jpg"}],"images":[{"uri":"moors_law.png"},{"uri":"marvin_minsky.jpg"},{"uri":"Nerual_network.jpeg"},{"uri":"wall_paper_flowers.jpg"},{"uri":"wooden_floor.jpg"},{"uri":"trading_booth_cetner.jpg"},{"uri":"shelf_wood.jpg"},{"uri":"celiing%201.jpg"},{"uri":"roof_title_1.jpg"},{"uri":"brick_1.jpg"},{"uri":"z3.jpg"},{"uri":"chest_board.jpg"}],"samplers":[{"magFilter":9729,"minFilter":9987,"wrapS":10497,"wrapT":10497}]}